M48
METRIC,LZ,000.000
;FILE_FORMAT=3:3
;TYPE=PLATED
;Layer: PTH_Through_Via
;EasyEDA v6.5.29, 2023-10-05 15:07:23
;0de49d076cbe44b984db42f85a7ac8d1,cce8abda2c6f4e5b9eea80e955d706a9,10
;Gerber Generator version 0.2
;Holesize 1 = 0.305 mm
T01C0.305
%
G05
G90
T01
X009271Y-011176
X009271Y-008763
X018542Y-014224
X013589Y-014224
X020320Y-008118
X025654Y-012446
X025781Y-009271
X020574Y-001524
X010795Y-001270
X011430Y-001270
X012065Y-001270
X011430Y-007747
X020193Y-017526
X019558Y-017526
X023622Y-005842
X023114Y-005842
X024638Y-007239
X005080Y-010287
X006223Y-007747
X013081Y-011049
X017145Y-004064
M30
