M48
METRIC,LZ,000.000
;FILE_FORMAT=3:3
;TYPE=PLATED
;Layer: PTH_Through
;EasyEDA v6.5.29, 2023-10-05 15:07:23
;0de49d076cbe44b984db42f85a7ac8d1,cce8abda2c6f4e5b9eea80e955d706a9,10
;Gerber Generator version 0.2
;Holesize 1 = 0.305 mm
T01C0.305
;Holesize 2 = 0.500 mm
T02C0.500
;Holesize 3 = 0.501 mm
T03C0.501
;Holesize 4 = 0.600 mm
T04C0.600
;Holesize 5 = 1.101 mm
T05C1.101
;Holesize 6 = 1.200 mm
T06C1.200
%
G05
G90
T01
X009271Y-011176
X009271Y-008763
X018542Y-014224
X013589Y-014224
X020320Y-008118
X025654Y-012446
X025781Y-009271
X020574Y-001524
X010795Y-001270
X011430Y-001270
X012065Y-001270
X011430Y-007747
X020193Y-017526
X019558Y-017526
X023622Y-005842
X023114Y-005842
X024638Y-007239
X005080Y-010287
X006223Y-007747
X013081Y-011049
X017145Y-004064
T02
X029750Y-007550G85X029750Y-007450
X031750Y-008550G85X031750Y-008450
X029750Y-009550G85X029750Y-009450
X031750Y-010550G85X031750Y-010450
X029750Y-011550G85X029750Y-011450
X031750Y-012550G85X031750Y-012450
X029750Y-013550G85X029750Y-013450
T03
X031750Y-006550G85X031750Y-006450
T04
X031950Y-004500G85X033550Y-004500
X031950Y-015500G85X033550Y-015500
T05
X001524Y-006477
X001524Y-009017
X001524Y-011557
X001524Y-014097
T06
X006223Y-003048
X006223Y-005588
X021717Y-011049
X019177Y-011049
X014478Y-016510
X011938Y-016510
M30
