G04 Layer: TopSilkscreenLayer*
G04 EasyEDA v6.5.29, 2023-10-05 15:07:23*
G04 0de49d076cbe44b984db42f85a7ac8d1,cce8abda2c6f4e5b9eea80e955d706a9,10*
G04 Gerber Generator version 0.2*
G04 Scale: 100 percent, Rotated: No, Reflected: No *
G04 Dimensions in millimeters *
G04 leading zeros omitted , absolute positions ,4 integer and 5 decimal *
%FSLAX45Y45*%
%MOMM*%

%ADD10C,0.1500*%
%ADD11C,0.1524*%
%ADD12C,0.2540*%
%ADD13C,0.2032*%
%ADD14C,0.2030*%
%ADD15C,0.1270*%
%ADD16C,0.2000*%
%ADD17C,0.0155*%

%LPD*%
D10*
X323087Y-736600D02*
G01*
X389889Y-711200D01*
X323087Y-685800D02*
G01*
X389889Y-711200D01*
X339089Y-616965D02*
G01*
X332486Y-620268D01*
X326136Y-626618D01*
X323087Y-632968D01*
X323087Y-645668D01*
X326136Y-652018D01*
X332486Y-658368D01*
X339089Y-661415D01*
X348487Y-664718D01*
X364489Y-664718D01*
X373887Y-661415D01*
X380237Y-658368D01*
X386587Y-652018D01*
X389889Y-645668D01*
X389889Y-632968D01*
X386587Y-626618D01*
X380237Y-620268D01*
X373887Y-616965D01*
X339089Y-548131D02*
G01*
X332486Y-551434D01*
X326136Y-557784D01*
X323087Y-564134D01*
X323087Y-576834D01*
X326136Y-583184D01*
X332486Y-589534D01*
X339089Y-592836D01*
X348487Y-595884D01*
X364489Y-595884D01*
X373887Y-592836D01*
X380237Y-589534D01*
X386587Y-583184D01*
X389889Y-576834D01*
X389889Y-564134D01*
X386587Y-557784D01*
X380237Y-551434D01*
X373887Y-548131D01*
X332486Y-933450D02*
G01*
X326136Y-939800D01*
X323087Y-949197D01*
X323087Y-961897D01*
X326136Y-971550D01*
X332486Y-977900D01*
X339089Y-977900D01*
X345439Y-974597D01*
X348487Y-971550D01*
X351789Y-965200D01*
X358139Y-946150D01*
X361187Y-939800D01*
X364489Y-936497D01*
X370839Y-933450D01*
X380237Y-933450D01*
X386587Y-939800D01*
X389889Y-949197D01*
X389889Y-961897D01*
X386587Y-971550D01*
X380237Y-977900D01*
X339089Y-864615D02*
G01*
X332486Y-867918D01*
X326136Y-874268D01*
X323087Y-880618D01*
X323087Y-893318D01*
X326136Y-899668D01*
X332486Y-906018D01*
X339089Y-909065D01*
X348487Y-912368D01*
X364489Y-912368D01*
X373887Y-909065D01*
X380237Y-906018D01*
X386587Y-899668D01*
X389889Y-893318D01*
X389889Y-880618D01*
X386587Y-874268D01*
X380237Y-867918D01*
X373887Y-864615D01*
X323087Y-843534D02*
G01*
X389889Y-843534D01*
X389889Y-843534D02*
G01*
X389889Y-805434D01*
X332486Y-1238250D02*
G01*
X326136Y-1244600D01*
X323087Y-1253997D01*
X323087Y-1266697D01*
X326136Y-1276350D01*
X332486Y-1282700D01*
X339089Y-1282700D01*
X345439Y-1279397D01*
X348487Y-1276350D01*
X351789Y-1270000D01*
X358139Y-1250950D01*
X361187Y-1244600D01*
X364489Y-1241297D01*
X370839Y-1238250D01*
X380237Y-1238250D01*
X386587Y-1244600D01*
X389889Y-1253997D01*
X389889Y-1266697D01*
X386587Y-1276350D01*
X380237Y-1282700D01*
X323087Y-1217168D02*
G01*
X389889Y-1217168D01*
X323087Y-1217168D02*
G01*
X323087Y-1194815D01*
X326136Y-1185418D01*
X332486Y-1179068D01*
X339089Y-1175765D01*
X348487Y-1172718D01*
X364489Y-1172718D01*
X373887Y-1175765D01*
X380237Y-1179068D01*
X386587Y-1185418D01*
X389889Y-1194815D01*
X389889Y-1217168D01*
X323087Y-1126236D02*
G01*
X389889Y-1151636D01*
X323087Y-1126236D02*
G01*
X389889Y-1100581D01*
X367537Y-1141984D02*
G01*
X367537Y-1110234D01*
X339089Y-1476247D02*
G01*
X332486Y-1479550D01*
X326136Y-1485900D01*
X323087Y-1492250D01*
X323087Y-1504950D01*
X326136Y-1511300D01*
X332486Y-1517650D01*
X339089Y-1520697D01*
X348487Y-1524000D01*
X364489Y-1524000D01*
X373887Y-1520697D01*
X380237Y-1517650D01*
X386587Y-1511300D01*
X389889Y-1504950D01*
X389889Y-1492250D01*
X386587Y-1485900D01*
X380237Y-1479550D01*
X373887Y-1476247D01*
X364489Y-1476247D01*
X364489Y-1492250D02*
G01*
X364489Y-1476247D01*
X323087Y-1455165D02*
G01*
X389889Y-1455165D01*
X323087Y-1455165D02*
G01*
X389889Y-1410715D01*
X323087Y-1410715D02*
G01*
X389889Y-1410715D01*
X323087Y-1389634D02*
G01*
X389889Y-1389634D01*
X323087Y-1389634D02*
G01*
X323087Y-1367536D01*
X326136Y-1357884D01*
X332486Y-1351534D01*
X339089Y-1348486D01*
X348487Y-1345184D01*
X364489Y-1345184D01*
X373887Y-1348486D01*
X380237Y-1351534D01*
X386587Y-1357884D01*
X389889Y-1367536D01*
X389889Y-1389634D01*
D11*
X1182878Y-761492D02*
G01*
X1177544Y-751078D01*
X1167129Y-740663D01*
X1156970Y-735584D01*
X1136142Y-735584D01*
X1125728Y-740663D01*
X1115313Y-751078D01*
X1109979Y-761492D01*
X1104900Y-777239D01*
X1104900Y-803147D01*
X1109979Y-818642D01*
X1115313Y-829055D01*
X1125728Y-839470D01*
X1136142Y-844550D01*
X1156970Y-844550D01*
X1167129Y-839470D01*
X1177544Y-829055D01*
X1182878Y-818642D01*
X1217168Y-756412D02*
G01*
X1227581Y-751078D01*
X1243076Y-735584D01*
X1243076Y-844550D01*
X2287777Y-545592D02*
G01*
X2282443Y-535178D01*
X2272029Y-524763D01*
X2261870Y-519684D01*
X2241041Y-519684D01*
X2230627Y-524763D01*
X2220213Y-535178D01*
X2214879Y-545592D01*
X2209800Y-561339D01*
X2209800Y-587247D01*
X2214879Y-602742D01*
X2220213Y-613155D01*
X2230627Y-623570D01*
X2241041Y-628650D01*
X2261870Y-628650D01*
X2272029Y-623570D01*
X2282443Y-613155D01*
X2287777Y-602742D01*
X2332481Y-519684D02*
G01*
X2389631Y-519684D01*
X2358390Y-561339D01*
X2373884Y-561339D01*
X2384297Y-566420D01*
X2389631Y-571500D01*
X2394711Y-587247D01*
X2394711Y-597662D01*
X2389631Y-613155D01*
X2379218Y-623570D01*
X2363470Y-628650D01*
X2347975Y-628650D01*
X2332481Y-623570D01*
X2327147Y-618489D01*
X2322068Y-608076D01*
X1993391Y-1611121D02*
G01*
X1982977Y-1616455D01*
X1972563Y-1626870D01*
X1967484Y-1637029D01*
X1967484Y-1657857D01*
X1972563Y-1668271D01*
X1982977Y-1678686D01*
X1993391Y-1684020D01*
X2009140Y-1689100D01*
X2035047Y-1689100D01*
X2050541Y-1684020D01*
X2060956Y-1678686D01*
X2071370Y-1668271D01*
X2076450Y-1657857D01*
X2076450Y-1637029D01*
X2071370Y-1626870D01*
X2060956Y-1616455D01*
X2050541Y-1611121D01*
X1967484Y-1525015D02*
G01*
X2040127Y-1576831D01*
X2040127Y-1498854D01*
X1967484Y-1525015D02*
G01*
X2076450Y-1525015D01*
X2122677Y-113792D02*
G01*
X2117343Y-103378D01*
X2106929Y-92963D01*
X2096770Y-87884D01*
X2075941Y-87884D01*
X2065527Y-92963D01*
X2055113Y-103378D01*
X2049779Y-113792D01*
X2044700Y-129539D01*
X2044700Y-155447D01*
X2049779Y-170942D01*
X2055113Y-181355D01*
X2065527Y-191770D01*
X2075941Y-196850D01*
X2096770Y-196850D01*
X2106929Y-191770D01*
X2117343Y-181355D01*
X2122677Y-170942D01*
X2162047Y-113792D02*
G01*
X2162047Y-108712D01*
X2167381Y-98297D01*
X2172461Y-92963D01*
X2182875Y-87884D01*
X2203704Y-87884D01*
X2214118Y-92963D01*
X2219197Y-98297D01*
X2224531Y-108712D01*
X2224531Y-119126D01*
X2219197Y-129539D01*
X2208784Y-145034D01*
X2156968Y-196850D01*
X2229611Y-196850D01*
X63500Y-367284D02*
G01*
X63500Y-476250D01*
X136144Y-367284D02*
G01*
X136144Y-476250D01*
X63500Y-419100D02*
G01*
X136144Y-419100D01*
X170434Y-388112D02*
G01*
X180847Y-382778D01*
X196595Y-367284D01*
X196595Y-476250D01*
X367284Y-392429D02*
G01*
X450342Y-392429D01*
X466089Y-397763D01*
X471170Y-402844D01*
X476250Y-413257D01*
X476250Y-423671D01*
X471170Y-434086D01*
X466089Y-439420D01*
X450342Y-444500D01*
X439928Y-444500D01*
X367284Y-358139D02*
G01*
X476250Y-358139D01*
X367284Y-358139D02*
G01*
X367284Y-311404D01*
X372363Y-295910D01*
X377697Y-290829D01*
X388112Y-285495D01*
X403605Y-285495D01*
X414020Y-290829D01*
X419100Y-295910D01*
X424434Y-311404D01*
X424434Y-358139D01*
X388112Y-251205D02*
G01*
X382778Y-240792D01*
X367284Y-225297D01*
X476250Y-225297D01*
X2376170Y-1027684D02*
G01*
X2376170Y-1110742D01*
X2370836Y-1126489D01*
X2365756Y-1131570D01*
X2355341Y-1136650D01*
X2344927Y-1136650D01*
X2334513Y-1131570D01*
X2329179Y-1126489D01*
X2324100Y-1110742D01*
X2324100Y-1100328D01*
X2410459Y-1027684D02*
G01*
X2410459Y-1136650D01*
X2410459Y-1027684D02*
G01*
X2457195Y-1027684D01*
X2472690Y-1032763D01*
X2477770Y-1038097D01*
X2483104Y-1048512D01*
X2483104Y-1064005D01*
X2477770Y-1074420D01*
X2472690Y-1079500D01*
X2457195Y-1084834D01*
X2410459Y-1084834D01*
X2522474Y-1053592D02*
G01*
X2522474Y-1048512D01*
X2527808Y-1038097D01*
X2532888Y-1032763D01*
X2543302Y-1027684D01*
X2564129Y-1027684D01*
X2574543Y-1032763D01*
X2579624Y-1038097D01*
X2584958Y-1048512D01*
X2584958Y-1058926D01*
X2579624Y-1069339D01*
X2569209Y-1084834D01*
X2517393Y-1136650D01*
X2590038Y-1136650D01*
X1281429Y-1906015D02*
G01*
X1281429Y-1822957D01*
X1286763Y-1807210D01*
X1291844Y-1802129D01*
X1302257Y-1797050D01*
X1312671Y-1797050D01*
X1323086Y-1802129D01*
X1328420Y-1807210D01*
X1333500Y-1822957D01*
X1333500Y-1833371D01*
X1247139Y-1906015D02*
G01*
X1247139Y-1797050D01*
X1247139Y-1906015D02*
G01*
X1200404Y-1906015D01*
X1184910Y-1900936D01*
X1179829Y-1895602D01*
X1174495Y-1885187D01*
X1174495Y-1869694D01*
X1179829Y-1859279D01*
X1184910Y-1854200D01*
X1200404Y-1848865D01*
X1247139Y-1848865D01*
X1129792Y-1906015D02*
G01*
X1072642Y-1906015D01*
X1103884Y-1864360D01*
X1088389Y-1864360D01*
X1077976Y-1859279D01*
X1072642Y-1854200D01*
X1067562Y-1838452D01*
X1067562Y-1828037D01*
X1072642Y-1812544D01*
X1083055Y-1802129D01*
X1098550Y-1797050D01*
X1114297Y-1797050D01*
X1129792Y-1802129D01*
X1135126Y-1807210D01*
X1140205Y-1817623D01*
X1364729Y-989584D02*
G01*
X1354315Y-994663D01*
X1343901Y-1005078D01*
X1338567Y-1015492D01*
X1333487Y-1031239D01*
X1333487Y-1057147D01*
X1338567Y-1072642D01*
X1343901Y-1083055D01*
X1354315Y-1093470D01*
X1364729Y-1098550D01*
X1385557Y-1098550D01*
X1395717Y-1093470D01*
X1406131Y-1083055D01*
X1411465Y-1072642D01*
X1416545Y-1057147D01*
X1416545Y-1031239D01*
X1411465Y-1015492D01*
X1406131Y-1005078D01*
X1395717Y-994663D01*
X1385557Y-989584D01*
X1364729Y-989584D01*
X1380223Y-1077976D02*
G01*
X1411465Y-1108963D01*
X1450835Y-1010412D02*
G01*
X1461249Y-1005078D01*
X1476997Y-989584D01*
X1476997Y-1098550D01*
X1929384Y-578357D02*
G01*
X1934463Y-588771D01*
X1944877Y-599186D01*
X1955291Y-604520D01*
X1971040Y-609600D01*
X1996947Y-609600D01*
X2012441Y-604520D01*
X2022856Y-599186D01*
X2033270Y-588771D01*
X2038350Y-578357D01*
X2038350Y-557529D01*
X2033270Y-547370D01*
X2022856Y-536955D01*
X2012441Y-531621D01*
X1996947Y-526542D01*
X1971040Y-526542D01*
X1955291Y-531621D01*
X1944877Y-536955D01*
X1934463Y-547370D01*
X1929384Y-557529D01*
X1929384Y-578357D01*
X2017775Y-562863D02*
G01*
X2048763Y-531621D01*
X1955291Y-486918D02*
G01*
X1950211Y-486918D01*
X1939797Y-481837D01*
X1934463Y-476504D01*
X1929384Y-466089D01*
X1929384Y-445515D01*
X1934463Y-435102D01*
X1939797Y-429768D01*
X1950211Y-424687D01*
X1960625Y-424687D01*
X1971040Y-429768D01*
X1986534Y-440181D01*
X2038350Y-492252D01*
X2038350Y-419354D01*
X2490215Y-800100D02*
G01*
X2381250Y-800100D01*
X2490215Y-800100D02*
G01*
X2490215Y-846836D01*
X2485136Y-862329D01*
X2479802Y-867663D01*
X2469388Y-872744D01*
X2458974Y-872744D01*
X2448559Y-867663D01*
X2443479Y-862329D01*
X2438400Y-846836D01*
X2438400Y-800100D01*
X2438400Y-836421D02*
G01*
X2381250Y-872744D01*
X2469388Y-907034D02*
G01*
X2474722Y-917447D01*
X2490215Y-933195D01*
X2381250Y-933195D01*
X2235200Y-176784D02*
G01*
X2235200Y-285750D01*
X2235200Y-176784D02*
G01*
X2281936Y-176784D01*
X2297429Y-181863D01*
X2302763Y-187197D01*
X2307843Y-197612D01*
X2307843Y-208026D01*
X2302763Y-218439D01*
X2297429Y-223520D01*
X2281936Y-228600D01*
X2235200Y-228600D01*
X2271522Y-228600D02*
G01*
X2307843Y-285750D01*
X2347468Y-202692D02*
G01*
X2347468Y-197612D01*
X2352547Y-187197D01*
X2357881Y-181863D01*
X2368295Y-176784D01*
X2388870Y-176784D01*
X2399284Y-181863D01*
X2404618Y-187197D01*
X2409697Y-197612D01*
X2409697Y-208026D01*
X2404618Y-218439D01*
X2394204Y-233934D01*
X2342134Y-285750D01*
X2415031Y-285750D01*
X1804415Y-1320800D02*
G01*
X1695450Y-1320800D01*
X1804415Y-1320800D02*
G01*
X1804415Y-1367536D01*
X1799336Y-1383029D01*
X1794002Y-1388363D01*
X1783587Y-1393444D01*
X1773173Y-1393444D01*
X1762760Y-1388363D01*
X1757679Y-1383029D01*
X1752600Y-1367536D01*
X1752600Y-1320800D01*
X1752600Y-1357121D02*
G01*
X1695450Y-1393444D01*
X1804415Y-1438147D02*
G01*
X1804415Y-1495297D01*
X1762760Y-1464310D01*
X1762760Y-1479804D01*
X1757679Y-1490218D01*
X1752600Y-1495297D01*
X1736852Y-1500631D01*
X1726437Y-1500631D01*
X1710944Y-1495297D01*
X1700529Y-1484884D01*
X1695450Y-1469389D01*
X1695450Y-1453895D01*
X1700529Y-1438147D01*
X1705610Y-1433068D01*
X1716023Y-1427734D01*
X1713484Y-952500D02*
G01*
X1822450Y-952500D01*
X1713484Y-952500D02*
G01*
X1713484Y-905763D01*
X1718563Y-890270D01*
X1723897Y-884936D01*
X1734312Y-879855D01*
X1744726Y-879855D01*
X1755139Y-884936D01*
X1760220Y-890270D01*
X1765300Y-905763D01*
X1765300Y-952500D01*
X1765300Y-916178D02*
G01*
X1822450Y-879855D01*
X1713484Y-793495D02*
G01*
X1786128Y-845565D01*
X1786128Y-767587D01*
X1713484Y-793495D02*
G01*
X1822450Y-793495D01*
X1002284Y-1066800D02*
G01*
X1111250Y-1066800D01*
X1002284Y-1066800D02*
G01*
X1002284Y-1020063D01*
X1007363Y-1004570D01*
X1012697Y-999236D01*
X1023112Y-994155D01*
X1033526Y-994155D01*
X1043939Y-999236D01*
X1049020Y-1004570D01*
X1054100Y-1020063D01*
X1054100Y-1066800D01*
X1054100Y-1030478D02*
G01*
X1111250Y-994155D01*
X1002284Y-897381D02*
G01*
X1002284Y-949452D01*
X1049020Y-954531D01*
X1043939Y-949452D01*
X1038605Y-933704D01*
X1038605Y-918210D01*
X1043939Y-902715D01*
X1054100Y-892302D01*
X1069847Y-886968D01*
X1080262Y-886968D01*
X1095755Y-892302D01*
X1106170Y-902715D01*
X1111250Y-918210D01*
X1111250Y-933704D01*
X1106170Y-949452D01*
X1101089Y-954531D01*
X1090676Y-959865D01*
X3151192Y-261581D02*
G01*
X3151192Y-339559D01*
X3156275Y-355053D01*
X3166689Y-365467D01*
X3182434Y-370547D01*
X3192848Y-370547D01*
X3208342Y-365467D01*
X3218759Y-355053D01*
X3223839Y-339559D01*
X3223839Y-261581D01*
X3258126Y-282409D02*
G01*
X3268543Y-277075D01*
X3284291Y-261581D01*
X3284291Y-370547D01*
X1460500Y-49784D02*
G01*
X1460500Y-127762D01*
X1465579Y-143255D01*
X1475994Y-153670D01*
X1491742Y-158750D01*
X1502155Y-158750D01*
X1517650Y-153670D01*
X1528063Y-143255D01*
X1533144Y-127762D01*
X1533144Y-49784D01*
X1572768Y-75692D02*
G01*
X1572768Y-70612D01*
X1577847Y-60197D01*
X1583181Y-54863D01*
X1593595Y-49784D01*
X1614170Y-49784D01*
X1624584Y-54863D01*
X1629918Y-60197D01*
X1634997Y-70612D01*
X1634997Y-81026D01*
X1629918Y-91439D01*
X1619504Y-106934D01*
X1567434Y-158750D01*
X1640331Y-158750D01*
X2487168Y-1399412D02*
G01*
X2559811Y-1508379D01*
X2559811Y-1399412D02*
G01*
X2487168Y-1508379D01*
X2594102Y-1420240D02*
G01*
X2604515Y-1414906D01*
X2620263Y-1399412D01*
X2620263Y-1508379D01*
X876269Y-824560D02*
G01*
X955278Y-824560D01*
X955278Y-724839D02*
G01*
X876269Y-724839D01*
X861029Y-740079D02*
G01*
X861029Y-809320D01*
X1079530Y-824560D02*
G01*
X1000521Y-824560D01*
X1000521Y-724839D02*
G01*
X1079530Y-724839D01*
X1094770Y-740079D02*
G01*
X1094770Y-809320D01*
X2413939Y-507969D02*
G01*
X2413939Y-586978D01*
X2513660Y-586978D02*
G01*
X2513660Y-507969D01*
X2498420Y-492729D02*
G01*
X2429179Y-492729D01*
X2413939Y-711230D02*
G01*
X2413939Y-632221D01*
X2513660Y-632221D02*
G01*
X2513660Y-711230D01*
X2498420Y-726470D02*
G01*
X2429179Y-726470D01*
X2109139Y-1587469D02*
G01*
X2109139Y-1666478D01*
X2208860Y-1666478D02*
G01*
X2208860Y-1587469D01*
X2193620Y-1572229D02*
G01*
X2124379Y-1572229D01*
X2109139Y-1790730D02*
G01*
X2109139Y-1711721D01*
X2208860Y-1711721D02*
G01*
X2208860Y-1790730D01*
X2193620Y-1805970D02*
G01*
X2124379Y-1805970D01*
D12*
X1727898Y-192377D02*
G01*
X1727898Y-112374D01*
X1838873Y-223362D02*
G01*
X1758876Y-223362D01*
X1838873Y-81396D02*
G01*
X1758876Y-81396D01*
X1896463Y-223944D02*
G01*
X1976462Y-223944D01*
X2007445Y-192961D02*
G01*
X2007445Y-112963D01*
X1896463Y-81983D02*
G01*
X1976462Y-81983D01*
X279400Y-777052D02*
G01*
X279400Y-1536700D01*
X25400Y-1536700D01*
X25400Y-520700D01*
X279400Y-520700D01*
X279400Y-777052D01*
X279400Y-777052D02*
G01*
X25400Y-777052D01*
D13*
X749300Y-685800D02*
G01*
X495300Y-685800D01*
X495300Y-177800D01*
X749300Y-177800D01*
X749300Y-368300D01*
D14*
X749300Y-685800D02*
G01*
X749300Y-368300D01*
D13*
X1790700Y-1231900D02*
G01*
X1790700Y-977900D01*
X2298700Y-977900D01*
X2298700Y-1231900D01*
X2108200Y-1231900D01*
D14*
X1790700Y-1231900D02*
G01*
X2108200Y-1231900D01*
D13*
X1066800Y-1778000D02*
G01*
X1066800Y-1524000D01*
X1574800Y-1524000D01*
X1574800Y-1778000D01*
X1384300Y-1778000D01*
D14*
X1066800Y-1778000D02*
G01*
X1384300Y-1778000D01*
D11*
X1421107Y-1154480D02*
G01*
X1245867Y-1154480D01*
X1245867Y-1258641D01*
X1421107Y-1461719D02*
G01*
X1245867Y-1461719D01*
X1245867Y-1357558D01*
X1421107Y-1262560D02*
G01*
X1421107Y-1353639D01*
X2106907Y-646480D02*
G01*
X1931667Y-646480D01*
X1931667Y-750641D01*
X2106907Y-953719D02*
G01*
X1931667Y-953719D01*
X1931667Y-849558D01*
X2106907Y-754560D02*
G01*
X2106907Y-845639D01*
X2219939Y-842721D02*
G01*
X2219939Y-938608D01*
X2352060Y-938608D01*
X2352060Y-842721D01*
X2219939Y-757478D02*
G01*
X2219939Y-661591D01*
X2352060Y-661591D01*
X2352060Y-757478D01*
X2268778Y-340339D02*
G01*
X2172891Y-340339D01*
X2172891Y-472460D01*
X2268778Y-472460D01*
X2354021Y-340339D02*
G01*
X2449908Y-340339D01*
X2449908Y-472460D01*
X2354021Y-472460D01*
X1521439Y-1363421D02*
G01*
X1521439Y-1459308D01*
X1653560Y-1459308D01*
X1653560Y-1363421D01*
X1521439Y-1278178D02*
G01*
X1521439Y-1182291D01*
X1653560Y-1182291D01*
X1653560Y-1278178D01*
X1894860Y-541578D02*
G01*
X1894860Y-445691D01*
X1762739Y-445691D01*
X1762739Y-541578D01*
X1894860Y-626821D02*
G01*
X1894860Y-722708D01*
X1762739Y-722708D01*
X1762739Y-626821D01*
X1132860Y-1189278D02*
G01*
X1132860Y-1093391D01*
X1000739Y-1093391D01*
X1000739Y-1189278D01*
X1132860Y-1274521D02*
G01*
X1132860Y-1370408D01*
X1000739Y-1370408D01*
X1000739Y-1274521D01*
D15*
X2874992Y-449999D02*
G01*
X2874992Y-1549996D01*
X3474994Y-1549996D01*
X3474994Y-449999D01*
X2874992Y-449999D01*
D11*
X1376342Y-22979D02*
G01*
X1376342Y-688220D01*
X1082062Y-688220D01*
X1082062Y-22979D01*
X1376342Y-22979D01*
D12*
X2484602Y-1579905D02*
G01*
X2544597Y-1579905D01*
X2484602Y-1899894D02*
G01*
X2544597Y-1899894D01*
X2734599Y-1579900D02*
G01*
X2764599Y-1579900D01*
X2764599Y-1899899D01*
X2734599Y-1899899D01*
X2289586Y-1899892D02*
G01*
X2259586Y-1899892D01*
X2259586Y-1579892D01*
X2289586Y-1579892D01*
D11*
G75*
G01*
X876270Y-724840D02*
G03*
X861030Y-740080I0J-15240D01*
G75*
G01*
X861030Y-809320D02*
G03*
X876270Y-824560I15240J0D01*
G75*
G01*
X1079530Y-724840D02*
G02*
X1094770Y-740080I0J-15240D01*
G75*
G01*
X1094770Y-809320D02*
G02*
X1079530Y-824560I-15240J0D01*
G75*
G01*
X2513660Y-507970D02*
G03*
X2498420Y-492730I-15240J0D01*
G75*
G01*
X2429180Y-492730D02*
G03*
X2413940Y-507970I0J-15240D01*
G75*
G01*
X2513660Y-711230D02*
G02*
X2498420Y-726470I-15240J0D01*
G75*
G01*
X2429180Y-726470D02*
G02*
X2413940Y-711230I0J15240D01*
G75*
G01*
X2208860Y-1587470D02*
G03*
X2193620Y-1572230I-15240J0D01*
G75*
G01*
X2124380Y-1572230D02*
G03*
X2109140Y-1587470I0J-15240D01*
G75*
G01*
X2208860Y-1790730D02*
G02*
X2193620Y-1805970I-15240J0D01*
G75*
G01*
X2124380Y-1805970D02*
G02*
X2109140Y-1790730I0J15240D01*
D12*
G75*
G01*
X2007451Y-192961D02*
G02*
X1976468Y-223944I-30983J0D01*
G75*
G01*
X1976468Y-81978D02*
G02*
X2007451Y-112964I0J-30983D01*
G75*
G01*
X1758881Y-223363D02*
G02*
X1727899Y-192377I0J30983D01*
G75*
G01*
X1727899Y-112380D02*
G02*
X1758881Y-81397I30982J0D01*
D16*
G75*
G01
X2284603Y-1939900D02*
G03X2284603Y-1939900I-10008J0D01*
M02*
