G04 Layer: TopSolderMaskLayer*
G04 EasyEDA v6.5.29, 2023-10-05 15:07:23*
G04 0de49d076cbe44b984db42f85a7ac8d1,cce8abda2c6f4e5b9eea80e955d706a9,10*
G04 Gerber Generator version 0.2*
G04 Scale: 100 percent, Rotated: No, Reflected: No *
G04 Dimensions in millimeters *
G04 leading zeros omitted , absolute positions ,4 integer and 5 decimal *
%FSLAX45Y45*%
%MOMM*%

%AMMACRO1*1,1,$1,$2,$3*1,1,$1,$4,$5*1,1,$1,0-$2,0-$3*1,1,$1,0-$4,0-$5*20,1,$1,$2,$3,$4,$5,0*20,1,$1,$4,$5,0-$2,0-$3,0*20,1,$1,0-$2,0-$3,0-$4,0-$5,0*20,1,$1,0-$4,0-$5,$2,$3,0*4,1,4,$2,$3,$4,$5,0-$2,0-$3,0-$4,0-$5,$2,$3,0*%
%ADD10MACRO1,0.1016X0.395X0.27X0.395X-0.27*%
%ADD11MACRO1,0.1016X-0.395X0.27X-0.395X-0.27*%
%ADD12MACRO1,0.1016X0.27X-0.395X-0.27X-0.395*%
%ADD13MACRO1,0.1016X0.27X0.395X-0.27X0.395*%
%ADD14MACRO1,0.1016X0.4X-0.45X-0.4X-0.45*%
%ADD15MACRO1,0.1016X0.85X0.85X0.85X-0.85*%
%ADD16C,1.8016*%
%ADD17MACRO1,0.1016X1X1X1X-1*%
%ADD18C,2.1016*%
%ADD19MACRO1,0.1016X1X-1X-1X-1*%
%ADD20MACRO1,0.1016X-0.535X0.3X0.535X0.3*%
%ADD21MACRO1,0.1016X-0.432X0.4032X0.432X0.4032*%
%ADD22MACRO1,0.1016X-0.432X-0.4032X0.432X-0.4032*%
%ADD23MACRO1,0.1016X0.4032X0.432X0.4032X-0.432*%
%ADD24MACRO1,0.1016X-0.4032X0.432X-0.4032X-0.432*%
%ADD25MACRO1,0.1016X0.432X-0.4032X-0.432X-0.4032*%
%ADD26MACRO1,0.1016X0.432X0.4032X-0.432X0.4032*%
%ADD27O,1.0015981999999999X1.1015979999999999*%
%ADD28O,3.5015932X1.3015976000000002*%
%ADD29MACRO1,0.1016X1.25X-0.55X-1.25X-0.55*%
%ADD30MACRO1,0.1016X-1.17X-1.8X-1.17X1.8*%
%ADD31MACRO1,0.1016X-0.8X0.75X0.8X0.75*%
%ADD32MACRO1,0.1016X0.8X-0.75X-0.8X-0.75*%

%LPD*%
D10*
G01*
X923394Y-774700D03*
D11*
G01*
X1032405Y-774700D03*
D12*
G01*
X2463800Y-555094D03*
D13*
G01*
X2463800Y-664105D03*
D12*
G01*
X2159000Y-1634594D03*
D13*
G01*
X2159000Y-1743605D03*
D14*
G01*
X1796900Y-152400D03*
G01*
X1936899Y-152400D03*
D15*
G01*
X152400Y-647700D03*
D16*
G01*
X152400Y-901700D03*
G01*
X152400Y-1155700D03*
G01*
X152400Y-1409700D03*
D17*
G01*
X622300Y-304800D03*
D18*
G01*
X622300Y-558800D03*
D19*
G01*
X2171700Y-1104900D03*
D18*
G01*
X1917700Y-1104900D03*
D19*
G01*
X1447800Y-1651000D03*
D18*
G01*
X1193800Y-1651000D03*
D20*
G01*
X1456999Y-1403096D03*
G01*
X1456999Y-1213103D03*
G01*
X1210000Y-1308100D03*
G01*
X2142799Y-895096D03*
G01*
X2142799Y-705103D03*
G01*
X1895800Y-800100D03*
D21*
G01*
X2286000Y-875424D03*
D22*
G01*
X2286000Y-724775D03*
D23*
G01*
X2236075Y-406400D03*
D24*
G01*
X2386724Y-406400D03*
D21*
G01*
X1587500Y-1396124D03*
D22*
G01*
X1587500Y-1245475D03*
D25*
G01*
X1828800Y-508875D03*
D26*
G01*
X1828800Y-659524D03*
D25*
G01*
X1066800Y-1156575D03*
D26*
G01*
X1066800Y-1307224D03*
D27*
G01*
X2974992Y-749998D03*
G01*
X3174994Y-849998D03*
G01*
X2974992Y-949998D03*
G01*
X3174994Y-1049997D03*
G01*
X2974992Y-1149997D03*
G01*
X3174994Y-1249997D03*
G01*
X2974992Y-1349997D03*
D28*
G01*
X3274994Y-449999D03*
D27*
G01*
X3174994Y-649998D03*
D28*
G01*
X3274994Y-1549996D03*
D29*
G01*
X922206Y-125602D03*
G01*
X922206Y-355600D03*
G01*
X922206Y-585597D03*
D30*
G01*
X1516202Y-355600D03*
D31*
G01*
X2387600Y-1849901D03*
G01*
X2641600Y-1849901D03*
D32*
G01*
X2641600Y-1629901D03*
D31*
G01*
X2387600Y-1629901D03*
M02*
