G04 Layer: TopLayer*
G04 EasyEDA v6.5.29, 2023-10-05 15:07:23*
G04 0de49d076cbe44b984db42f85a7ac8d1,cce8abda2c6f4e5b9eea80e955d706a9,10*
G04 Gerber Generator version 0.2*
G04 Scale: 100 percent, Rotated: No, Reflected: No *
G04 Dimensions in millimeters *
G04 leading zeros omitted , absolute positions ,4 integer and 5 decimal *
%FSLAX45Y45*%
%MOMM*%

%AMMACRO1*21,1,$1,$2,0,0,$3*%
%ADD10C,0.2540*%
%ADD11MACRO1,0.54X0.7901X-90.0000*%
%ADD12MACRO1,0.54X0.7901X0.0000*%
%ADD13R,0.5400X0.7901*%
%ADD14R,0.8000X0.9000*%
%ADD15R,1.0700X0.6000*%
%ADD16MACRO1,0.864X0.8065X0.0000*%
%ADD17R,0.8640X0.8065*%
%ADD18MACRO1,0.864X0.8065X-90.0000*%
%ADD19R,2.5000X1.1000*%
%ADD20MACRO1,3.6X2.34X90.0000*%
%ADD21R,1.6000X1.5000*%
%ADD22R,1.7000X1.7000*%
%ADD23C,1.7000*%
%ADD24R,2.0000X2.0000*%
%ADD25C,2.0000*%
%ADD26O,0.8999982X0.9999979999999999*%
%ADD27O,3.3999932X1.1999976*%
%ADD28C,0.6096*%
%ADD29C,0.0137*%

%LPD*%
G36*
X1982927Y-768756D02*
G01*
X1978964Y-767791D01*
X1975713Y-765403D01*
X1973630Y-761949D01*
X1972564Y-758901D01*
X1969516Y-753973D01*
X1965401Y-749909D01*
X1960524Y-746810D01*
X1955038Y-744880D01*
X1948738Y-744169D01*
X1898700Y-744169D01*
X1894789Y-743407D01*
X1891487Y-741222D01*
X1886204Y-735939D01*
X1884121Y-732942D01*
X1883257Y-729437D01*
X1883664Y-725830D01*
X1885289Y-722579D01*
X1892198Y-715975D01*
X1895297Y-711047D01*
X1897176Y-705612D01*
X1897888Y-699262D01*
X1897888Y-619760D01*
X1897176Y-613460D01*
X1895297Y-607974D01*
X1892198Y-603097D01*
X1888134Y-598982D01*
X1883206Y-595934D01*
X1877161Y-593801D01*
X1873605Y-591667D01*
X1871167Y-588264D01*
X1870354Y-584200D01*
X1871167Y-580136D01*
X1873605Y-576732D01*
X1877161Y-574598D01*
X1883206Y-572465D01*
X1888134Y-569417D01*
X1892198Y-565302D01*
X1895297Y-560425D01*
X1897176Y-554939D01*
X1897888Y-548640D01*
X1897888Y-469138D01*
X1897176Y-462788D01*
X1895297Y-457352D01*
X1892198Y-452424D01*
X1888134Y-448360D01*
X1883206Y-445262D01*
X1877771Y-443331D01*
X1871421Y-442620D01*
X1786178Y-442620D01*
X1779828Y-443331D01*
X1774393Y-445262D01*
X1769465Y-448360D01*
X1765401Y-452424D01*
X1762302Y-457352D01*
X1760169Y-463448D01*
X1758238Y-466801D01*
X1755241Y-469138D01*
X1751584Y-470204D01*
X1744319Y-470966D01*
X1737106Y-473151D01*
X1730400Y-476707D01*
X1724202Y-481838D01*
X1676450Y-529539D01*
X1673148Y-531723D01*
X1669288Y-532536D01*
X1665376Y-531723D01*
X1662074Y-529539D01*
X1659889Y-526237D01*
X1659128Y-522376D01*
X1659128Y-340868D01*
X1659889Y-336956D01*
X1662074Y-333705D01*
X1665376Y-331470D01*
X1669288Y-330708D01*
X1948281Y-330708D01*
X1952193Y-331470D01*
X1955495Y-333705D01*
X1990394Y-368604D01*
X1992630Y-371906D01*
X1993392Y-375818D01*
X1993392Y-758596D01*
X1992579Y-762558D01*
X1990293Y-765911D01*
X1986889Y-768045D01*
G37*

%LPD*%
G36*
X781050Y-950874D02*
G01*
X777189Y-950061D01*
X773887Y-947877D01*
X700735Y-874776D01*
X694537Y-869645D01*
X687832Y-866089D01*
X680618Y-863904D01*
X672592Y-863092D01*
X262940Y-863092D01*
X259130Y-862330D01*
X255879Y-860247D01*
X253644Y-857046D01*
X250698Y-850392D01*
X243332Y-838250D01*
X234492Y-827125D01*
X224282Y-817270D01*
X212902Y-808786D01*
X200507Y-801776D01*
X187350Y-796442D01*
X173583Y-792835D01*
X159512Y-791057D01*
X145288Y-791057D01*
X131216Y-792835D01*
X117449Y-796442D01*
X104292Y-801776D01*
X91897Y-808786D01*
X80518Y-817270D01*
X70307Y-827125D01*
X61467Y-838250D01*
X54102Y-850392D01*
X48361Y-863396D01*
X45821Y-871931D01*
X43840Y-875537D01*
X40640Y-878078D01*
X36677Y-879195D01*
X32613Y-878586D01*
X29108Y-876401D01*
X26720Y-873048D01*
X25908Y-869035D01*
X25908Y-750214D01*
X26822Y-745947D01*
X29464Y-742492D01*
X33274Y-740460D01*
X37592Y-740156D01*
X41656Y-741680D01*
X44653Y-744778D01*
X47193Y-748792D01*
X51308Y-752906D01*
X56184Y-756005D01*
X61671Y-757885D01*
X67970Y-758596D01*
X236829Y-758596D01*
X243128Y-757885D01*
X248615Y-756005D01*
X253492Y-752906D01*
X257606Y-748792D01*
X260705Y-743915D01*
X262585Y-738428D01*
X263296Y-732129D01*
X263296Y-696468D01*
X264058Y-692556D01*
X266293Y-689305D01*
X269595Y-687070D01*
X273456Y-686308D01*
X532892Y-686308D01*
X540918Y-685495D01*
X548132Y-683310D01*
X554837Y-679754D01*
X560578Y-675030D01*
X563880Y-673201D01*
X567588Y-672744D01*
X571195Y-673608D01*
X577646Y-676503D01*
X592175Y-681024D01*
X607110Y-683768D01*
X622300Y-684682D01*
X637489Y-683768D01*
X652424Y-681024D01*
X666953Y-676503D01*
X680821Y-670255D01*
X693826Y-662381D01*
X705764Y-653034D01*
X716534Y-642264D01*
X728878Y-626516D01*
X731926Y-624789D01*
X735330Y-624230D01*
X761136Y-624230D01*
X765048Y-624992D01*
X768299Y-627176D01*
X770534Y-630478D01*
X771296Y-634390D01*
X771296Y-640029D01*
X772007Y-646328D01*
X773938Y-651814D01*
X776986Y-656691D01*
X781100Y-660806D01*
X785977Y-663905D01*
X791464Y-665784D01*
X797763Y-666496D01*
X874014Y-666496D01*
X877874Y-667258D01*
X881176Y-669442D01*
X883361Y-672744D01*
X884174Y-676605D01*
X884326Y-713079D01*
X883513Y-717143D01*
X881126Y-720547D01*
X877569Y-722731D01*
X872693Y-724408D01*
X867765Y-727506D01*
X863701Y-731570D01*
X860602Y-736498D01*
X858672Y-741934D01*
X857961Y-748284D01*
X857961Y-801116D01*
X858672Y-807466D01*
X860602Y-812901D01*
X863701Y-817829D01*
X867765Y-821893D01*
X872693Y-824992D01*
X877569Y-826668D01*
X880770Y-828548D01*
X883107Y-831443D01*
X884275Y-834999D01*
X884072Y-838708D01*
X882497Y-842111D01*
X878281Y-848106D01*
X874166Y-857046D01*
X871626Y-866495D01*
X870762Y-876300D01*
X871626Y-886104D01*
X874166Y-895553D01*
X878281Y-904494D01*
X883919Y-912520D01*
X890879Y-919480D01*
X898906Y-925118D01*
X907846Y-929233D01*
X913942Y-930859D01*
X917600Y-932738D01*
X920292Y-935939D01*
X921410Y-939952D01*
X920902Y-944067D01*
X918718Y-947623D01*
X915365Y-950010D01*
X911301Y-950874D01*
G37*

%LPD*%
G36*
X942898Y-950874D02*
G01*
X938834Y-950010D01*
X935482Y-947623D01*
X933297Y-944067D01*
X932789Y-939952D01*
X933907Y-935939D01*
X936599Y-932738D01*
X940257Y-930859D01*
X946353Y-929233D01*
X955294Y-925118D01*
X963320Y-919480D01*
X970280Y-912520D01*
X975918Y-904494D01*
X980033Y-895553D01*
X982573Y-886104D01*
X983437Y-876300D01*
X982573Y-866495D01*
X980033Y-857046D01*
X975918Y-848106D01*
X970635Y-840638D01*
X969010Y-836726D01*
X969060Y-832510D01*
X970889Y-828649D01*
X974090Y-825906D01*
X978103Y-824687D01*
X982319Y-825195D01*
X987145Y-826871D01*
X993495Y-827633D01*
X1006297Y-827633D01*
X1006297Y-794562D01*
X998982Y-794562D01*
X995070Y-793800D01*
X991768Y-791565D01*
X989584Y-788263D01*
X988821Y-784402D01*
X988821Y-764997D01*
X989584Y-761136D01*
X991768Y-757834D01*
X995070Y-755599D01*
X998982Y-754837D01*
X1006297Y-754837D01*
X1006297Y-721817D01*
X993495Y-721817D01*
X987145Y-722528D01*
X981252Y-724560D01*
X977900Y-725119D01*
X974547Y-724560D01*
X968349Y-722426D01*
X964844Y-720293D01*
X962406Y-716889D01*
X961542Y-712876D01*
X961390Y-676706D01*
X962152Y-672795D01*
X964336Y-669493D01*
X967638Y-667308D01*
X971550Y-666496D01*
X1046632Y-666496D01*
X1052931Y-665784D01*
X1058418Y-663905D01*
X1063294Y-660806D01*
X1067409Y-656691D01*
X1070508Y-651814D01*
X1072388Y-646328D01*
X1073099Y-640029D01*
X1073099Y-634238D01*
X1073861Y-630326D01*
X1076096Y-627075D01*
X1079398Y-624840D01*
X1083259Y-624078D01*
X1674622Y-624078D01*
X1682648Y-623265D01*
X1689862Y-621080D01*
X1696567Y-617524D01*
X1702765Y-612394D01*
X1750466Y-564743D01*
X1753768Y-562559D01*
X1757629Y-561746D01*
X1761540Y-562559D01*
X1764842Y-564743D01*
X1769465Y-569417D01*
X1774393Y-572465D01*
X1780438Y-574598D01*
X1783994Y-576732D01*
X1786432Y-580136D01*
X1787245Y-584200D01*
X1786432Y-588264D01*
X1783994Y-591667D01*
X1780438Y-593801D01*
X1774393Y-595934D01*
X1769465Y-598982D01*
X1765401Y-603097D01*
X1762302Y-607974D01*
X1760423Y-613460D01*
X1759712Y-619760D01*
X1759712Y-699262D01*
X1760423Y-705612D01*
X1762302Y-711047D01*
X1765401Y-715975D01*
X1769465Y-720039D01*
X1774393Y-723138D01*
X1779828Y-725068D01*
X1784705Y-726186D01*
X1787499Y-728167D01*
X1789430Y-731012D01*
X1790344Y-734314D01*
X1791004Y-740613D01*
X1793189Y-747877D01*
X1796745Y-754532D01*
X1801875Y-760780D01*
X1813407Y-772312D01*
X1815592Y-775614D01*
X1816404Y-779475D01*
X1816404Y-829513D01*
X1817116Y-835863D01*
X1818995Y-841298D01*
X1822094Y-846226D01*
X1826158Y-850290D01*
X1831086Y-853389D01*
X1836521Y-855319D01*
X1842871Y-856030D01*
X1847037Y-856030D01*
X1850898Y-856792D01*
X1854200Y-858977D01*
X1856435Y-862279D01*
X1857197Y-866190D01*
X1857197Y-940714D01*
X1856435Y-944575D01*
X1854200Y-947877D01*
X1850898Y-950061D01*
X1847037Y-950874D01*
G37*

%LPC*%
G36*
X1058519Y-754837D02*
G01*
X1097838Y-754837D01*
X1097838Y-748284D01*
X1097127Y-741934D01*
X1095197Y-736498D01*
X1092098Y-731570D01*
X1088034Y-727506D01*
X1083106Y-724408D01*
X1077671Y-722528D01*
X1071321Y-721817D01*
X1058519Y-721817D01*
G37*
G36*
X1058519Y-827633D02*
G01*
X1071321Y-827633D01*
X1077671Y-826871D01*
X1083106Y-824992D01*
X1088034Y-821893D01*
X1092098Y-817829D01*
X1095197Y-812901D01*
X1097127Y-807466D01*
X1097838Y-801116D01*
X1097838Y-794562D01*
X1058519Y-794562D01*
G37*

%LPD*%
G36*
X2474468Y-977392D02*
G01*
X2470556Y-976630D01*
X2467305Y-974394D01*
X2465070Y-971143D01*
X2464308Y-967232D01*
X2464308Y-813308D01*
X2463495Y-805281D01*
X2461310Y-798068D01*
X2457754Y-791362D01*
X2452624Y-785164D01*
X2365197Y-697738D01*
X2358847Y-692454D01*
X2356358Y-689457D01*
X2355189Y-685749D01*
X2354376Y-678688D01*
X2352497Y-673252D01*
X2349398Y-668324D01*
X2345334Y-664260D01*
X2340406Y-661162D01*
X2334971Y-659231D01*
X2328621Y-658520D01*
X2243378Y-658520D01*
X2237028Y-659231D01*
X2231593Y-661162D01*
X2226716Y-663346D01*
X2222855Y-663295D01*
X2219248Y-661771D01*
X2212390Y-654913D01*
X2207514Y-651814D01*
X2202027Y-649884D01*
X2195728Y-649173D01*
X2089912Y-649173D01*
X2082038Y-650189D01*
X2077770Y-649833D01*
X2074062Y-647750D01*
X2071522Y-644296D01*
X2070607Y-640130D01*
X2070607Y-455168D01*
X2071370Y-451256D01*
X2073605Y-448005D01*
X2076856Y-445770D01*
X2080768Y-445008D01*
X2160320Y-445008D01*
X2163927Y-445668D01*
X2167077Y-447598D01*
X2169363Y-450494D01*
X2170531Y-455371D01*
X2172462Y-460806D01*
X2175560Y-465734D01*
X2179624Y-469798D01*
X2184552Y-472897D01*
X2189988Y-474776D01*
X2196338Y-475488D01*
X2275840Y-475488D01*
X2282139Y-474776D01*
X2287625Y-472897D01*
X2292502Y-469798D01*
X2296617Y-465734D01*
X2299665Y-460806D01*
X2301798Y-454761D01*
X2303932Y-451205D01*
X2307336Y-448767D01*
X2311400Y-447954D01*
X2315464Y-448767D01*
X2318867Y-451205D01*
X2321001Y-454761D01*
X2323134Y-460806D01*
X2326182Y-465734D01*
X2330297Y-469798D01*
X2335174Y-472897D01*
X2340660Y-474776D01*
X2346960Y-475488D01*
X2397048Y-475488D01*
X2400909Y-476300D01*
X2404211Y-478485D01*
X2414168Y-488442D01*
X2416149Y-491235D01*
X2417114Y-494487D01*
X2416911Y-497890D01*
X2415590Y-501040D01*
X2413508Y-504393D01*
X2411628Y-509828D01*
X2410917Y-516178D01*
X2410917Y-594004D01*
X2411628Y-600354D01*
X2413660Y-606247D01*
X2414219Y-609600D01*
X2413660Y-612952D01*
X2411628Y-618845D01*
X2410917Y-625195D01*
X2410917Y-637997D01*
X2443937Y-637997D01*
X2443937Y-630682D01*
X2444699Y-626770D01*
X2446934Y-623468D01*
X2450236Y-621284D01*
X2454097Y-620522D01*
X2470404Y-620522D01*
X2474315Y-621284D01*
X2477566Y-623468D01*
X2480665Y-626567D01*
X2482900Y-629869D01*
X2483662Y-633730D01*
X2483662Y-637997D01*
X2487879Y-637997D01*
X2491790Y-638759D01*
X2495092Y-640994D01*
X2526995Y-672846D01*
X2529179Y-676148D01*
X2529433Y-677468D01*
X2530754Y-677722D01*
X2534056Y-679958D01*
X2536494Y-682396D01*
X2538730Y-685698D01*
X2539492Y-689610D01*
X2539492Y-882091D01*
X2538730Y-886002D01*
X2536494Y-889304D01*
X2534920Y-890879D01*
X2529281Y-898906D01*
X2525166Y-907846D01*
X2522626Y-917295D01*
X2521762Y-927100D01*
X2522626Y-936904D01*
X2525166Y-946353D01*
X2529281Y-955294D01*
X2533599Y-961390D01*
X2535275Y-965453D01*
X2535072Y-969873D01*
X2533040Y-973785D01*
X2529586Y-976426D01*
X2525268Y-977392D01*
G37*

%LPC*%
G36*
X2437384Y-729538D02*
G01*
X2443937Y-729538D01*
X2443937Y-690219D01*
X2410917Y-690219D01*
X2410917Y-703021D01*
X2411628Y-709371D01*
X2413508Y-714806D01*
X2416606Y-719734D01*
X2420670Y-723798D01*
X2425598Y-726897D01*
X2431034Y-728827D01*
G37*
G36*
X2483662Y-729538D02*
G01*
X2490216Y-729538D01*
X2496566Y-728827D01*
X2502001Y-726897D01*
X2506929Y-723798D01*
X2510993Y-719734D01*
X2514092Y-714806D01*
X2515971Y-709371D01*
X2516682Y-703021D01*
X2516682Y-690219D01*
X2483662Y-690219D01*
G37*

%LPD*%
G36*
X3462934Y-1505661D02*
G01*
X3458972Y-1504391D01*
X3455771Y-1501597D01*
X3449878Y-1493723D01*
X3441242Y-1485087D01*
X3431438Y-1477721D01*
X3420668Y-1471879D01*
X3409187Y-1467561D01*
X3397199Y-1464970D01*
X3384651Y-1464056D01*
X3274060Y-1464056D01*
X3270148Y-1463294D01*
X3266897Y-1461109D01*
X3264662Y-1457807D01*
X3263900Y-1453896D01*
X3263900Y-1182116D01*
X3262884Y-1181100D01*
X3207410Y-1181100D01*
X3203498Y-1180338D01*
X3196894Y-1177594D01*
X3186074Y-1175004D01*
X3175000Y-1174140D01*
X3163925Y-1175004D01*
X3153105Y-1177594D01*
X3146501Y-1180338D01*
X3142589Y-1181100D01*
X3099816Y-1181100D01*
X3098800Y-1182116D01*
X3098800Y-1341983D01*
X3098038Y-1345895D01*
X3095802Y-1349197D01*
X3059734Y-1385265D01*
X3056077Y-1387602D01*
X3051759Y-1388211D01*
X3047593Y-1386941D01*
X3044342Y-1384046D01*
X3042615Y-1380032D01*
X3042666Y-1375714D01*
X3045002Y-1366062D01*
X3045917Y-1354582D01*
X3045917Y-1345387D01*
X3045002Y-1333906D01*
X3042412Y-1323086D01*
X3038144Y-1312824D01*
X3032353Y-1303324D01*
X3025089Y-1294892D01*
X3016656Y-1287678D01*
X3007156Y-1281836D01*
X2996895Y-1277569D01*
X2986074Y-1274978D01*
X2975000Y-1274114D01*
X2963926Y-1274978D01*
X2953105Y-1277569D01*
X2942793Y-1281836D01*
X2933344Y-1287678D01*
X2924860Y-1294892D01*
X2917647Y-1303324D01*
X2915716Y-1306525D01*
X2913430Y-1309116D01*
X2910433Y-1310792D01*
X2907030Y-1311402D01*
X2690977Y-1311402D01*
X2687116Y-1310589D01*
X2683814Y-1308404D01*
X2624531Y-1249121D01*
X2622499Y-1246225D01*
X2621584Y-1242822D01*
X2620873Y-1234795D01*
X2618333Y-1225346D01*
X2614218Y-1216406D01*
X2608580Y-1208379D01*
X2606141Y-1205941D01*
X2603957Y-1202639D01*
X2603144Y-1198778D01*
X2603957Y-1194866D01*
X2606141Y-1191564D01*
X2609443Y-1189380D01*
X2613304Y-1188618D01*
X2907030Y-1188618D01*
X2910433Y-1189177D01*
X2913430Y-1190853D01*
X2915666Y-1193444D01*
X2917647Y-1196644D01*
X2924860Y-1205128D01*
X2933344Y-1212342D01*
X2942793Y-1218133D01*
X2953105Y-1222400D01*
X2963926Y-1224991D01*
X2975000Y-1225854D01*
X2986074Y-1224991D01*
X2996895Y-1222400D01*
X3007156Y-1218133D01*
X3016656Y-1212342D01*
X3025089Y-1205128D01*
X3032353Y-1196644D01*
X3038144Y-1187196D01*
X3042412Y-1176883D01*
X3045002Y-1166063D01*
X3045917Y-1154582D01*
X3045917Y-1145387D01*
X3045002Y-1133906D01*
X3042412Y-1123086D01*
X3038144Y-1112824D01*
X3032810Y-1104138D01*
X3031388Y-1100074D01*
X3031744Y-1095806D01*
X3033826Y-1092098D01*
X3037281Y-1089558D01*
X3041446Y-1088644D01*
X3107029Y-1088644D01*
X3110433Y-1089202D01*
X3113430Y-1090930D01*
X3115716Y-1093520D01*
X3117646Y-1096670D01*
X3124860Y-1105103D01*
X3133344Y-1112316D01*
X3142792Y-1118158D01*
X3153105Y-1122426D01*
X3163925Y-1125016D01*
X3175000Y-1125880D01*
X3186074Y-1125016D01*
X3196894Y-1122426D01*
X3207156Y-1118158D01*
X3216656Y-1112316D01*
X3225088Y-1105103D01*
X3232353Y-1096670D01*
X3238144Y-1087170D01*
X3242411Y-1076909D01*
X3245002Y-1066088D01*
X3245916Y-1054608D01*
X3245916Y-1045413D01*
X3245002Y-1033932D01*
X3242411Y-1023112D01*
X3238144Y-1012799D01*
X3232353Y-1003350D01*
X3225088Y-994867D01*
X3216656Y-987653D01*
X3207156Y-981862D01*
X3196894Y-977595D01*
X3186074Y-975004D01*
X3175000Y-974140D01*
X3163925Y-975004D01*
X3153105Y-977595D01*
X3142792Y-981862D01*
X3133344Y-987653D01*
X3124860Y-994867D01*
X3117646Y-1003350D01*
X3115665Y-1006602D01*
X3113379Y-1009142D01*
X3110382Y-1010869D01*
X3107029Y-1011428D01*
X3041446Y-1011428D01*
X3037230Y-1010513D01*
X3033826Y-1007973D01*
X3031693Y-1004265D01*
X3031337Y-999998D01*
X3032760Y-995984D01*
X3038144Y-987196D01*
X3042412Y-976884D01*
X3045002Y-966063D01*
X3045917Y-954582D01*
X3045917Y-945387D01*
X3045002Y-933907D01*
X3042412Y-923086D01*
X3038144Y-912825D01*
X3032353Y-903325D01*
X3025089Y-894892D01*
X3016656Y-887679D01*
X3007156Y-881837D01*
X2996895Y-877569D01*
X2986074Y-874979D01*
X2975000Y-874115D01*
X2963926Y-874979D01*
X2953105Y-877569D01*
X2942793Y-881837D01*
X2933344Y-887679D01*
X2924860Y-894892D01*
X2917647Y-903325D01*
X2911856Y-912825D01*
X2907588Y-923086D01*
X2904998Y-933907D01*
X2904083Y-945387D01*
X2904083Y-954582D01*
X2904998Y-966419D01*
X2904490Y-970584D01*
X2902356Y-974140D01*
X2898952Y-976528D01*
X2894888Y-977392D01*
X2630932Y-977392D01*
X2626614Y-976426D01*
X2623159Y-973785D01*
X2621127Y-969873D01*
X2620924Y-965453D01*
X2622600Y-961390D01*
X2626918Y-955294D01*
X2631033Y-946353D01*
X2633573Y-936904D01*
X2634437Y-927100D01*
X2633573Y-917295D01*
X2631033Y-907846D01*
X2626918Y-898906D01*
X2621280Y-890879D01*
X2619705Y-889304D01*
X2617470Y-886002D01*
X2616708Y-882091D01*
X2616708Y-669899D01*
X2615895Y-661873D01*
X2613710Y-654659D01*
X2610154Y-647954D01*
X2605024Y-641756D01*
X2519680Y-556361D01*
X2517495Y-553059D01*
X2516682Y-549198D01*
X2516682Y-516178D01*
X2515971Y-509828D01*
X2514092Y-504393D01*
X2510993Y-499465D01*
X2504490Y-493115D01*
X2502966Y-490169D01*
X2502408Y-486918D01*
X2502408Y-483971D01*
X2501595Y-475945D01*
X2499410Y-468731D01*
X2495854Y-462026D01*
X2490724Y-455828D01*
X2455926Y-420979D01*
X2453741Y-417677D01*
X2452979Y-413816D01*
X2452979Y-363778D01*
X2452268Y-357428D01*
X2450338Y-351993D01*
X2447239Y-347065D01*
X2443175Y-343001D01*
X2438247Y-339902D01*
X2432812Y-338023D01*
X2426462Y-337312D01*
X2346960Y-337312D01*
X2340660Y-338023D01*
X2335174Y-339902D01*
X2330297Y-343001D01*
X2326182Y-347065D01*
X2323134Y-351993D01*
X2321001Y-358038D01*
X2318867Y-361594D01*
X2315464Y-364032D01*
X2311400Y-364845D01*
X2307336Y-364032D01*
X2303932Y-361594D01*
X2301798Y-358038D01*
X2299665Y-351993D01*
X2296617Y-347065D01*
X2292502Y-343001D01*
X2287625Y-339902D01*
X2282139Y-338023D01*
X2275840Y-337312D01*
X2196338Y-337312D01*
X2189988Y-338023D01*
X2184552Y-339902D01*
X2179624Y-343001D01*
X2175560Y-347065D01*
X2172462Y-351993D01*
X2170531Y-357428D01*
X2169363Y-362305D01*
X2167077Y-365201D01*
X2163927Y-367131D01*
X2160320Y-367792D01*
X2080768Y-367792D01*
X2076856Y-367030D01*
X2073605Y-364794D01*
X2071370Y-361543D01*
X2069795Y-348081D01*
X2067610Y-340868D01*
X2064054Y-334162D01*
X2058924Y-327964D01*
X1996135Y-265176D01*
X1989937Y-260045D01*
X1983232Y-256489D01*
X1976018Y-254304D01*
X1967992Y-253492D01*
X1845665Y-253492D01*
X1841754Y-252729D01*
X1838502Y-250494D01*
X1836267Y-247243D01*
X1835505Y-243332D01*
X1835505Y-232308D01*
X1836369Y-228244D01*
X1838756Y-224840D01*
X1842312Y-222707D01*
X1848104Y-220675D01*
X1853031Y-217627D01*
X1857095Y-213512D01*
X1858314Y-211632D01*
X1861108Y-208686D01*
X1864868Y-207060D01*
X1868932Y-207060D01*
X1872691Y-208686D01*
X1875485Y-211632D01*
X1876704Y-213512D01*
X1880768Y-217627D01*
X1885696Y-220675D01*
X1891131Y-222605D01*
X1897481Y-223316D01*
X1910537Y-223316D01*
X1910537Y-181254D01*
X1872996Y-181254D01*
X1869084Y-180492D01*
X1865782Y-178257D01*
X1863598Y-174955D01*
X1862836Y-171094D01*
X1862836Y-133705D01*
X1863598Y-129844D01*
X1865782Y-126542D01*
X1869084Y-124307D01*
X1872996Y-123545D01*
X1910537Y-123545D01*
X1910537Y-81483D01*
X1897481Y-81483D01*
X1891131Y-82194D01*
X1885696Y-84124D01*
X1880768Y-87172D01*
X1876704Y-91287D01*
X1875485Y-93167D01*
X1872691Y-96113D01*
X1868932Y-97739D01*
X1864868Y-97739D01*
X1861108Y-96113D01*
X1858314Y-93167D01*
X1857095Y-91287D01*
X1853031Y-87172D01*
X1848104Y-84124D01*
X1842668Y-82194D01*
X1836318Y-81483D01*
X1757476Y-81483D01*
X1751177Y-82194D01*
X1745691Y-84124D01*
X1740814Y-87172D01*
X1736699Y-91287D01*
X1733600Y-96164D01*
X1731721Y-101650D01*
X1731010Y-107950D01*
X1731010Y-196850D01*
X1731721Y-203149D01*
X1733600Y-208635D01*
X1736699Y-213512D01*
X1740814Y-217627D01*
X1745691Y-220675D01*
X1751482Y-222707D01*
X1755038Y-224840D01*
X1757425Y-228244D01*
X1758289Y-232308D01*
X1758289Y-243332D01*
X1757527Y-247243D01*
X1755292Y-250494D01*
X1752041Y-252729D01*
X1748129Y-253492D01*
X1669288Y-253492D01*
X1665376Y-252729D01*
X1662074Y-250494D01*
X1659889Y-247243D01*
X1659128Y-243332D01*
X1659128Y-176174D01*
X1658416Y-169824D01*
X1656486Y-164388D01*
X1653387Y-159512D01*
X1649323Y-155397D01*
X1644396Y-152298D01*
X1638960Y-150418D01*
X1632610Y-149707D01*
X1399794Y-149707D01*
X1393444Y-150418D01*
X1388008Y-152298D01*
X1383080Y-155397D01*
X1379016Y-159512D01*
X1375918Y-164388D01*
X1373987Y-169824D01*
X1373276Y-176174D01*
X1373276Y-306832D01*
X1372514Y-310743D01*
X1370330Y-313994D01*
X1367028Y-316230D01*
X1363116Y-316992D01*
X1083259Y-316992D01*
X1079398Y-316230D01*
X1076096Y-313994D01*
X1073861Y-310743D01*
X1073099Y-306832D01*
X1073099Y-301193D01*
X1072388Y-294843D01*
X1070508Y-289407D01*
X1067409Y-284480D01*
X1063294Y-280416D01*
X1058418Y-277317D01*
X1052931Y-275386D01*
X1046632Y-274675D01*
X797763Y-274675D01*
X791464Y-275386D01*
X785977Y-277317D01*
X781100Y-280416D01*
X776986Y-284480D01*
X773938Y-289407D01*
X772007Y-294843D01*
X771296Y-301193D01*
X771296Y-306832D01*
X770534Y-310743D01*
X768299Y-313994D01*
X765048Y-316230D01*
X761136Y-316992D01*
X758393Y-316992D01*
X754481Y-316230D01*
X751179Y-313994D01*
X748995Y-310743D01*
X748233Y-306832D01*
X748233Y-205384D01*
X747471Y-199034D01*
X745591Y-193598D01*
X742492Y-188671D01*
X738428Y-184607D01*
X733501Y-181508D01*
X728065Y-179628D01*
X721715Y-178917D01*
X522884Y-178917D01*
X516534Y-179628D01*
X511098Y-181508D01*
X506171Y-184607D01*
X502107Y-188671D01*
X499008Y-193598D01*
X497128Y-199034D01*
X496417Y-205384D01*
X496417Y-404215D01*
X497128Y-410565D01*
X499008Y-416001D01*
X502107Y-420928D01*
X506171Y-424992D01*
X511098Y-428091D01*
X516534Y-429971D01*
X522884Y-430733D01*
X554837Y-430733D01*
X559104Y-431647D01*
X562610Y-434289D01*
X564642Y-438150D01*
X564896Y-442518D01*
X563270Y-446532D01*
X560120Y-449580D01*
X550773Y-455218D01*
X538835Y-464566D01*
X528066Y-475335D01*
X518718Y-487273D01*
X510844Y-500278D01*
X504596Y-514146D01*
X500075Y-528675D01*
X497332Y-543610D01*
X496417Y-558800D01*
X497332Y-573989D01*
X500075Y-588924D01*
X502259Y-595934D01*
X502666Y-599643D01*
X501700Y-603300D01*
X499465Y-606348D01*
X496265Y-608380D01*
X492556Y-609092D01*
X273456Y-609092D01*
X269595Y-608330D01*
X266293Y-606094D01*
X264058Y-602843D01*
X263296Y-598932D01*
X263296Y-563270D01*
X262585Y-556971D01*
X260705Y-551484D01*
X257606Y-546608D01*
X253492Y-542493D01*
X248615Y-539394D01*
X243128Y-537514D01*
X236829Y-536803D01*
X67970Y-536803D01*
X61671Y-537514D01*
X56184Y-539394D01*
X51308Y-542493D01*
X47193Y-546608D01*
X44653Y-550621D01*
X41656Y-553720D01*
X37592Y-555244D01*
X33274Y-554939D01*
X29464Y-552907D01*
X26822Y-549452D01*
X25908Y-545185D01*
X25908Y-36068D01*
X26670Y-32156D01*
X28905Y-28905D01*
X32156Y-26670D01*
X36068Y-25908D01*
X787349Y-25908D01*
X791311Y-26720D01*
X794664Y-29006D01*
X796848Y-32410D01*
X797509Y-36372D01*
X796594Y-40335D01*
X794207Y-43586D01*
X790752Y-45669D01*
X785977Y-47294D01*
X781100Y-50393D01*
X776986Y-54508D01*
X773938Y-59385D01*
X772007Y-64871D01*
X771296Y-71170D01*
X771296Y-91744D01*
X853338Y-91744D01*
X853338Y-36068D01*
X854151Y-32156D01*
X856335Y-28905D01*
X859637Y-26670D01*
X863498Y-25908D01*
X980897Y-25908D01*
X984758Y-26670D01*
X988060Y-28905D01*
X990295Y-32156D01*
X991057Y-36068D01*
X991057Y-91744D01*
X1073099Y-91744D01*
X1073099Y-71170D01*
X1072388Y-64871D01*
X1070508Y-59385D01*
X1067409Y-54508D01*
X1063294Y-50393D01*
X1058418Y-47294D01*
X1053693Y-45669D01*
X1050188Y-43586D01*
X1047800Y-40335D01*
X1046886Y-36372D01*
X1047546Y-32410D01*
X1049731Y-29006D01*
X1053084Y-26720D01*
X1057046Y-25908D01*
X3463950Y-25908D01*
X3467811Y-26670D01*
X3471113Y-28905D01*
X3473297Y-32156D01*
X3474059Y-36068D01*
X3474059Y-395528D01*
X3473196Y-399643D01*
X3470757Y-403047D01*
X3467150Y-405180D01*
X3462934Y-405638D01*
X3458972Y-404368D01*
X3455771Y-401624D01*
X3449878Y-393750D01*
X3441242Y-385064D01*
X3431438Y-377748D01*
X3420668Y-371856D01*
X3409187Y-367588D01*
X3397199Y-364998D01*
X3384651Y-364083D01*
X3165348Y-364083D01*
X3152749Y-364998D01*
X3140811Y-367588D01*
X3129330Y-371856D01*
X3118561Y-377748D01*
X3108756Y-385064D01*
X3100070Y-393750D01*
X3092754Y-403555D01*
X3086862Y-414324D01*
X3082594Y-425805D01*
X3080004Y-437743D01*
X3079089Y-449986D01*
X3080004Y-462229D01*
X3082594Y-474167D01*
X3086862Y-485648D01*
X3092754Y-496417D01*
X3100070Y-506222D01*
X3108756Y-514908D01*
X3118561Y-522224D01*
X3129330Y-528116D01*
X3140811Y-532384D01*
X3152749Y-534974D01*
X3165348Y-535889D01*
X3384651Y-535889D01*
X3397199Y-534974D01*
X3409187Y-532384D01*
X3420668Y-528116D01*
X3431438Y-522224D01*
X3441242Y-514908D01*
X3449878Y-506222D01*
X3455771Y-498348D01*
X3458972Y-495604D01*
X3462934Y-494334D01*
X3467150Y-494792D01*
X3470757Y-496925D01*
X3473196Y-500329D01*
X3474059Y-504443D01*
X3474059Y-682498D01*
X3473196Y-686612D01*
X3470706Y-690067D01*
X3466998Y-692150D01*
X3462782Y-692556D01*
X3458768Y-691235D01*
X3455619Y-688340D01*
X3449370Y-679500D01*
X3440429Y-669899D01*
X3430270Y-661670D01*
X3419094Y-654862D01*
X3407105Y-649630D01*
X3394506Y-646125D01*
X3381552Y-644347D01*
X3368446Y-644347D01*
X3355492Y-646125D01*
X3342894Y-649630D01*
X3330905Y-654862D01*
X3319678Y-661670D01*
X3309569Y-669899D01*
X3300628Y-679500D01*
X3293059Y-690168D01*
X3287064Y-701802D01*
X3282645Y-714146D01*
X3280003Y-726948D01*
X3279089Y-740003D01*
X3280003Y-753059D01*
X3282645Y-765860D01*
X3287064Y-778205D01*
X3293059Y-789787D01*
X3300628Y-800506D01*
X3309569Y-810056D01*
X3319678Y-818337D01*
X3330905Y-825144D01*
X3342894Y-830326D01*
X3355492Y-833882D01*
X3368446Y-835660D01*
X3381552Y-835660D01*
X3394506Y-833882D01*
X3407105Y-830326D01*
X3419094Y-825144D01*
X3430270Y-818337D01*
X3440429Y-810056D01*
X3449370Y-800506D01*
X3455619Y-791667D01*
X3458768Y-788771D01*
X3462782Y-787400D01*
X3466998Y-787806D01*
X3470706Y-789940D01*
X3473196Y-793343D01*
X3474059Y-797509D01*
X3474059Y-1082497D01*
X3473196Y-1086612D01*
X3470706Y-1090066D01*
X3466998Y-1092149D01*
X3462782Y-1092555D01*
X3458768Y-1091234D01*
X3455619Y-1088339D01*
X3449370Y-1079500D01*
X3440429Y-1069898D01*
X3430270Y-1061669D01*
X3419094Y-1054862D01*
X3407105Y-1049629D01*
X3394506Y-1046124D01*
X3381552Y-1044346D01*
X3368446Y-1044346D01*
X3355492Y-1046124D01*
X3342894Y-1049629D01*
X3330905Y-1054862D01*
X3319678Y-1061669D01*
X3309569Y-1069898D01*
X3300628Y-1079500D01*
X3293059Y-1090168D01*
X3287064Y-1101801D01*
X3282645Y-1114145D01*
X3280003Y-1126947D01*
X3279089Y-1140002D01*
X3280003Y-1153058D01*
X3282645Y-1165860D01*
X3287064Y-1178204D01*
X3293059Y-1189786D01*
X3300628Y-1200505D01*
X3309569Y-1210056D01*
X3319678Y-1218336D01*
X3330905Y-1225143D01*
X3342894Y-1230325D01*
X3355492Y-1233881D01*
X3368446Y-1235659D01*
X3381552Y-1235659D01*
X3394506Y-1233881D01*
X3407105Y-1230325D01*
X3419094Y-1225143D01*
X3430270Y-1218336D01*
X3440429Y-1210056D01*
X3449370Y-1200505D01*
X3455619Y-1191666D01*
X3458768Y-1188770D01*
X3462782Y-1187399D01*
X3466998Y-1187805D01*
X3470706Y-1189939D01*
X3473196Y-1193342D01*
X3474059Y-1197508D01*
X3474059Y-1495552D01*
X3473196Y-1499666D01*
X3470757Y-1503070D01*
X3467150Y-1505153D01*
G37*

%LPC*%
G36*
X3003854Y-718667D02*
G01*
X3040583Y-718667D01*
X3038144Y-712825D01*
X3032353Y-703326D01*
X3025089Y-694893D01*
X3016656Y-687679D01*
X3007156Y-681837D01*
X3003854Y-680466D01*
G37*
G36*
X3175000Y-725881D02*
G01*
X3186074Y-725017D01*
X3196894Y-722426D01*
X3207156Y-718159D01*
X3216656Y-712317D01*
X3225088Y-705104D01*
X3232353Y-696671D01*
X3238144Y-687171D01*
X3242411Y-676910D01*
X3245002Y-666089D01*
X3245916Y-654608D01*
X3245916Y-645414D01*
X3245002Y-633933D01*
X3242411Y-623112D01*
X3238144Y-612800D01*
X3232353Y-603351D01*
X3225088Y-594868D01*
X3216656Y-587654D01*
X3207156Y-581863D01*
X3196894Y-577596D01*
X3186074Y-575005D01*
X3175000Y-574141D01*
X3163925Y-575005D01*
X3153105Y-577596D01*
X3142792Y-581863D01*
X3133344Y-587654D01*
X3124860Y-594868D01*
X3117646Y-603351D01*
X3111855Y-612800D01*
X3107588Y-623112D01*
X3104997Y-633933D01*
X3104083Y-645414D01*
X3104083Y-654608D01*
X3104997Y-666089D01*
X3107588Y-676910D01*
X3111855Y-687171D01*
X3117646Y-696671D01*
X3124860Y-705104D01*
X3133344Y-712317D01*
X3142792Y-718159D01*
X3153105Y-722426D01*
X3163925Y-725017D01*
G37*
G36*
X1963216Y-123545D02*
G01*
X2002789Y-123545D01*
X2002789Y-107950D01*
X2002078Y-101650D01*
X2000199Y-96164D01*
X1997100Y-91287D01*
X1992985Y-87172D01*
X1988108Y-84124D01*
X1982622Y-82194D01*
X1976323Y-81483D01*
X1963216Y-81483D01*
G37*
G36*
X797763Y-206502D02*
G01*
X853338Y-206502D01*
X853338Y-159461D01*
X771296Y-159461D01*
X771296Y-180035D01*
X772007Y-186334D01*
X773938Y-191820D01*
X776986Y-196697D01*
X781100Y-200812D01*
X785977Y-203860D01*
X791464Y-205790D01*
G37*
G36*
X991057Y-206502D02*
G01*
X1046632Y-206502D01*
X1052931Y-205790D01*
X1058418Y-203860D01*
X1063294Y-200812D01*
X1067409Y-196697D01*
X1070508Y-191820D01*
X1072388Y-186334D01*
X1073099Y-180035D01*
X1073099Y-159461D01*
X991057Y-159461D01*
G37*
G36*
X3203854Y-818641D02*
G01*
X3240582Y-818641D01*
X3238144Y-812800D01*
X3232353Y-803351D01*
X3225088Y-794867D01*
X3216656Y-787654D01*
X3207156Y-781862D01*
X3203854Y-780491D01*
G37*
G36*
X3109417Y-818641D02*
G01*
X3146145Y-818641D01*
X3146145Y-780491D01*
X3142792Y-781862D01*
X3133344Y-787654D01*
X3124860Y-794867D01*
X3117646Y-803351D01*
X3111855Y-812800D01*
G37*
G36*
X2946146Y-819505D02*
G01*
X2946146Y-781354D01*
X2909417Y-781354D01*
X2911856Y-787196D01*
X2917647Y-796645D01*
X2924860Y-805129D01*
X2933344Y-812342D01*
X2942793Y-818134D01*
G37*
G36*
X3003854Y-819505D02*
G01*
X3007156Y-818134D01*
X3016656Y-812342D01*
X3025089Y-805129D01*
X3032353Y-796645D01*
X3038144Y-787196D01*
X3040583Y-781354D01*
X3003854Y-781354D01*
G37*
G36*
X1963216Y-223316D02*
G01*
X1976323Y-223316D01*
X1982622Y-222605D01*
X1988108Y-220675D01*
X1992985Y-217627D01*
X1997100Y-213512D01*
X2000199Y-208635D01*
X2002078Y-203149D01*
X2002789Y-196850D01*
X2002789Y-181254D01*
X1963216Y-181254D01*
G37*
G36*
X3146145Y-919530D02*
G01*
X3146145Y-881329D01*
X3109417Y-881329D01*
X3111855Y-887171D01*
X3117646Y-896670D01*
X3124860Y-905103D01*
X3133344Y-912317D01*
X3142792Y-918159D01*
G37*
G36*
X3203854Y-919530D02*
G01*
X3207156Y-918159D01*
X3216656Y-912317D01*
X3225088Y-905103D01*
X3232353Y-896670D01*
X3238144Y-887171D01*
X3240582Y-881329D01*
X3203854Y-881329D01*
G37*
G36*
X2909417Y-718667D02*
G01*
X2946146Y-718667D01*
X2946146Y-680466D01*
X2942793Y-681837D01*
X2933344Y-687679D01*
X2924860Y-694893D01*
X2917647Y-703326D01*
X2911856Y-712825D01*
G37*

%LPD*%
G36*
X1583893Y-1608531D02*
G01*
X1579981Y-1607769D01*
X1576679Y-1605534D01*
X1574495Y-1602232D01*
X1573733Y-1598371D01*
X1573733Y-1551584D01*
X1572971Y-1545234D01*
X1571091Y-1539798D01*
X1567992Y-1534871D01*
X1563928Y-1530807D01*
X1559001Y-1527708D01*
X1553565Y-1525828D01*
X1547215Y-1525117D01*
X1348384Y-1525117D01*
X1342034Y-1525828D01*
X1336598Y-1527708D01*
X1331671Y-1530807D01*
X1327607Y-1534871D01*
X1324508Y-1539798D01*
X1322628Y-1545234D01*
X1321917Y-1551584D01*
X1321917Y-1583537D01*
X1320952Y-1587804D01*
X1318310Y-1591310D01*
X1314450Y-1593342D01*
X1310081Y-1593596D01*
X1306068Y-1591970D01*
X1303020Y-1588820D01*
X1297381Y-1579473D01*
X1288034Y-1567535D01*
X1277264Y-1556766D01*
X1265326Y-1547418D01*
X1253490Y-1540256D01*
X1250899Y-1537970D01*
X1249172Y-1534972D01*
X1248613Y-1531569D01*
X1248613Y-1374190D01*
X1249375Y-1370279D01*
X1251559Y-1366977D01*
X1254861Y-1364792D01*
X1258773Y-1364030D01*
X1262938Y-1364030D01*
X1269238Y-1363319D01*
X1274724Y-1361389D01*
X1279601Y-1358290D01*
X1283716Y-1354226D01*
X1286764Y-1349298D01*
X1288694Y-1343863D01*
X1289405Y-1337513D01*
X1289405Y-1278686D01*
X1288694Y-1272336D01*
X1286764Y-1266901D01*
X1283716Y-1261973D01*
X1279601Y-1257909D01*
X1274724Y-1254810D01*
X1269238Y-1252880D01*
X1262938Y-1252169D01*
X1157071Y-1252169D01*
X1150721Y-1252880D01*
X1141171Y-1256487D01*
X1137208Y-1256385D01*
X1133602Y-1254760D01*
X1130198Y-1250797D01*
X1126134Y-1246682D01*
X1121206Y-1243634D01*
X1115161Y-1241501D01*
X1111605Y-1239367D01*
X1109167Y-1235964D01*
X1108354Y-1231900D01*
X1109167Y-1227836D01*
X1111605Y-1224432D01*
X1115161Y-1222298D01*
X1121206Y-1220165D01*
X1126134Y-1217117D01*
X1130198Y-1213002D01*
X1133297Y-1208125D01*
X1135176Y-1202639D01*
X1135888Y-1196340D01*
X1135888Y-1116838D01*
X1135176Y-1110488D01*
X1133297Y-1105052D01*
X1130198Y-1100124D01*
X1126134Y-1096060D01*
X1121206Y-1092962D01*
X1115771Y-1091031D01*
X1109421Y-1090320D01*
X1024178Y-1090320D01*
X1017828Y-1091031D01*
X1012393Y-1092962D01*
X1007465Y-1096060D01*
X1003401Y-1100124D01*
X999744Y-1105916D01*
X997102Y-1108760D01*
X993546Y-1110386D01*
X989634Y-1110589D01*
X985977Y-1109268D01*
X983081Y-1106678D01*
X981354Y-1103172D01*
X980033Y-1098346D01*
X975918Y-1089406D01*
X970280Y-1081379D01*
X963320Y-1074420D01*
X955294Y-1068781D01*
X946353Y-1064666D01*
X936904Y-1062126D01*
X927100Y-1061262D01*
X917295Y-1062126D01*
X907846Y-1064666D01*
X898906Y-1068781D01*
X890879Y-1074420D01*
X883919Y-1081379D01*
X878281Y-1089406D01*
X874166Y-1098346D01*
X871626Y-1107795D01*
X870762Y-1117600D01*
X871626Y-1127404D01*
X874166Y-1136853D01*
X878281Y-1145794D01*
X883919Y-1153820D01*
X890879Y-1160780D01*
X898906Y-1166418D01*
X907846Y-1170533D01*
X917295Y-1173073D01*
X925321Y-1173784D01*
X928725Y-1174699D01*
X931621Y-1176731D01*
X938428Y-1183487D01*
X944626Y-1188618D01*
X951331Y-1192174D01*
X958545Y-1194358D01*
X966571Y-1195171D01*
X988568Y-1195171D01*
X992632Y-1196035D01*
X996035Y-1198422D01*
X998169Y-1201978D01*
X1000302Y-1208125D01*
X1003401Y-1213002D01*
X1007465Y-1217117D01*
X1012393Y-1220165D01*
X1018438Y-1222298D01*
X1021994Y-1224432D01*
X1024432Y-1227836D01*
X1025245Y-1231900D01*
X1024432Y-1235964D01*
X1021994Y-1239367D01*
X1018438Y-1241501D01*
X1012393Y-1243634D01*
X1007465Y-1246682D01*
X1003401Y-1250797D01*
X1000302Y-1255674D01*
X998169Y-1261821D01*
X996035Y-1265377D01*
X992632Y-1267764D01*
X988568Y-1268628D01*
X794054Y-1268628D01*
X790143Y-1267866D01*
X786841Y-1265631D01*
X700735Y-1179576D01*
X694537Y-1174445D01*
X687832Y-1170889D01*
X680618Y-1168704D01*
X672592Y-1167892D01*
X273354Y-1167892D01*
X269544Y-1167130D01*
X266293Y-1165047D01*
X264058Y-1161846D01*
X263194Y-1158036D01*
X262788Y-1145032D01*
X260502Y-1131011D01*
X256489Y-1117396D01*
X250698Y-1104392D01*
X243332Y-1092250D01*
X234492Y-1081125D01*
X224282Y-1071270D01*
X212902Y-1062786D01*
X200507Y-1055776D01*
X187350Y-1050442D01*
X173583Y-1046835D01*
X159512Y-1045057D01*
X145288Y-1045057D01*
X131216Y-1046835D01*
X117449Y-1050442D01*
X104292Y-1055776D01*
X91897Y-1062786D01*
X80518Y-1071270D01*
X70307Y-1081125D01*
X61467Y-1092250D01*
X54102Y-1104392D01*
X48361Y-1117396D01*
X45821Y-1125931D01*
X43840Y-1129538D01*
X40640Y-1132078D01*
X36677Y-1133195D01*
X32613Y-1132586D01*
X29108Y-1130401D01*
X26720Y-1127048D01*
X25908Y-1123035D01*
X25908Y-934974D01*
X26771Y-930859D01*
X29260Y-927455D01*
X32867Y-925321D01*
X37033Y-924864D01*
X41046Y-926134D01*
X44196Y-928878D01*
X46075Y-933246D01*
X51003Y-946607D01*
X57556Y-959205D01*
X65684Y-970838D01*
X75234Y-981354D01*
X86055Y-990549D01*
X97993Y-998321D01*
X110794Y-1004468D01*
X124256Y-1008938D01*
X138226Y-1011682D01*
X152400Y-1012596D01*
X166573Y-1011682D01*
X180543Y-1008938D01*
X194005Y-1004468D01*
X206806Y-998321D01*
X218744Y-990549D01*
X229565Y-981354D01*
X239115Y-970838D01*
X247243Y-959205D01*
X254152Y-945794D01*
X256438Y-942898D01*
X259588Y-940968D01*
X263194Y-940308D01*
X652881Y-940308D01*
X656793Y-941069D01*
X660095Y-943305D01*
X733196Y-1016406D01*
X739444Y-1021537D01*
X746099Y-1025093D01*
X753364Y-1027277D01*
X761339Y-1028090D01*
X1799285Y-1028090D01*
X1803450Y-1028953D01*
X1806905Y-1031494D01*
X1808988Y-1035202D01*
X1809394Y-1039469D01*
X1807972Y-1043482D01*
X1806244Y-1046378D01*
X1799996Y-1060246D01*
X1795475Y-1074775D01*
X1792732Y-1089710D01*
X1791817Y-1104900D01*
X1792732Y-1120089D01*
X1795475Y-1135024D01*
X1799996Y-1149553D01*
X1806244Y-1163421D01*
X1814118Y-1176426D01*
X1823466Y-1188364D01*
X1834235Y-1199134D01*
X1846173Y-1208481D01*
X1859178Y-1216355D01*
X1873046Y-1222603D01*
X1878279Y-1224229D01*
X1881835Y-1226210D01*
X1884375Y-1229461D01*
X1885391Y-1233424D01*
X1884781Y-1237437D01*
X1882597Y-1240942D01*
X1879244Y-1243279D01*
X1875231Y-1244092D01*
X1747418Y-1244092D01*
X1743506Y-1243330D01*
X1740204Y-1241094D01*
X1717598Y-1218539D01*
X1711401Y-1213408D01*
X1704695Y-1209852D01*
X1697482Y-1207668D01*
X1689455Y-1206855D01*
X1665732Y-1206855D01*
X1661668Y-1205992D01*
X1658264Y-1203604D01*
X1656130Y-1200048D01*
X1653997Y-1193952D01*
X1650898Y-1189024D01*
X1646834Y-1184960D01*
X1641906Y-1181862D01*
X1636471Y-1179931D01*
X1630121Y-1179220D01*
X1544320Y-1179220D01*
X1539900Y-1178255D01*
X1536395Y-1175461D01*
X1534363Y-1172870D01*
X1530705Y-1166977D01*
X1526590Y-1162913D01*
X1521714Y-1159814D01*
X1516227Y-1157884D01*
X1509928Y-1157173D01*
X1404061Y-1157173D01*
X1397711Y-1157884D01*
X1392275Y-1159814D01*
X1387398Y-1162913D01*
X1383284Y-1166977D01*
X1380185Y-1171905D01*
X1378305Y-1177340D01*
X1377594Y-1183690D01*
X1377594Y-1242517D01*
X1378305Y-1248867D01*
X1380185Y-1254302D01*
X1383284Y-1259230D01*
X1387398Y-1263294D01*
X1392275Y-1266393D01*
X1397711Y-1268272D01*
X1404061Y-1268984D01*
X1454099Y-1268984D01*
X1457553Y-1269593D01*
X1460601Y-1271371D01*
X1467967Y-1277569D01*
X1474622Y-1281074D01*
X1481836Y-1283258D01*
X1489862Y-1284071D01*
X1509268Y-1284071D01*
X1513332Y-1284935D01*
X1516735Y-1287322D01*
X1518869Y-1290878D01*
X1521002Y-1297025D01*
X1524101Y-1301902D01*
X1528165Y-1306017D01*
X1533093Y-1309065D01*
X1539138Y-1311198D01*
X1542694Y-1313332D01*
X1545132Y-1316736D01*
X1545945Y-1320800D01*
X1545132Y-1324864D01*
X1542694Y-1328267D01*
X1539138Y-1330401D01*
X1533093Y-1332534D01*
X1528165Y-1335582D01*
X1524101Y-1339697D01*
X1522171Y-1342796D01*
X1519580Y-1345539D01*
X1516176Y-1347216D01*
X1512417Y-1347470D01*
X1509928Y-1347216D01*
X1404061Y-1347216D01*
X1397711Y-1347927D01*
X1392275Y-1349806D01*
X1387398Y-1352905D01*
X1383284Y-1356969D01*
X1381201Y-1360271D01*
X1379220Y-1362608D01*
X1376578Y-1364234D01*
X1373581Y-1364996D01*
X1370685Y-1365300D01*
X1367942Y-1366113D01*
X1364132Y-1366520D01*
X1358900Y-1366062D01*
X1349095Y-1366926D01*
X1339646Y-1369466D01*
X1330706Y-1373581D01*
X1322679Y-1379220D01*
X1315720Y-1386179D01*
X1310081Y-1394206D01*
X1305966Y-1403146D01*
X1303426Y-1412595D01*
X1302562Y-1422400D01*
X1303426Y-1432204D01*
X1305966Y-1441653D01*
X1310081Y-1450594D01*
X1315720Y-1458620D01*
X1322679Y-1465580D01*
X1330706Y-1471218D01*
X1339646Y-1475333D01*
X1349095Y-1477873D01*
X1358900Y-1478737D01*
X1368704Y-1477873D01*
X1378153Y-1475333D01*
X1387094Y-1471218D01*
X1395120Y-1465580D01*
X1398727Y-1461973D01*
X1401978Y-1459788D01*
X1405890Y-1459026D01*
X1509928Y-1459026D01*
X1516227Y-1458315D01*
X1520952Y-1456639D01*
X1523949Y-1456080D01*
X1526946Y-1456436D01*
X1529740Y-1457604D01*
X1533093Y-1459738D01*
X1538528Y-1461668D01*
X1544878Y-1462379D01*
X1630121Y-1462379D01*
X1636471Y-1461668D01*
X1641906Y-1459738D01*
X1646834Y-1456639D01*
X1650898Y-1452575D01*
X1653997Y-1447647D01*
X1656130Y-1441500D01*
X1658213Y-1437995D01*
X1661464Y-1435608D01*
X1665427Y-1434693D01*
X1669389Y-1435354D01*
X1672793Y-1437538D01*
X1675079Y-1440891D01*
X1675892Y-1444853D01*
X1675892Y-1516481D01*
X1675130Y-1520393D01*
X1672894Y-1523695D01*
X1591056Y-1605534D01*
X1587754Y-1607769D01*
G37*

%LPD*%
G36*
X36068Y-1974088D02*
G01*
X32156Y-1973325D01*
X28905Y-1971090D01*
X26670Y-1967839D01*
X25908Y-1963928D01*
X25908Y-1188974D01*
X26771Y-1184859D01*
X29260Y-1181455D01*
X32867Y-1179322D01*
X37033Y-1178864D01*
X41046Y-1180134D01*
X44196Y-1182878D01*
X46075Y-1187246D01*
X51003Y-1200607D01*
X57556Y-1213205D01*
X65684Y-1224838D01*
X75234Y-1235354D01*
X86055Y-1244549D01*
X97993Y-1252321D01*
X110794Y-1258468D01*
X124256Y-1262938D01*
X138226Y-1265682D01*
X152400Y-1266596D01*
X166573Y-1265682D01*
X180543Y-1262938D01*
X194005Y-1258468D01*
X206806Y-1252321D01*
X215341Y-1246733D01*
X218033Y-1245514D01*
X220929Y-1245108D01*
X652881Y-1245108D01*
X656793Y-1245870D01*
X660095Y-1248105D01*
X746201Y-1334160D01*
X752398Y-1339291D01*
X759104Y-1342847D01*
X766318Y-1345031D01*
X774344Y-1345844D01*
X988568Y-1345844D01*
X992632Y-1346708D01*
X996035Y-1349095D01*
X998169Y-1352651D01*
X1000302Y-1358747D01*
X1003401Y-1363675D01*
X1007465Y-1367739D01*
X1012393Y-1370838D01*
X1017828Y-1372768D01*
X1024178Y-1373479D01*
X1109421Y-1373479D01*
X1115771Y-1372768D01*
X1121206Y-1370838D01*
X1126134Y-1367739D01*
X1132941Y-1360881D01*
X1136548Y-1359306D01*
X1140460Y-1359255D01*
X1145286Y-1361389D01*
X1150721Y-1363319D01*
X1157071Y-1364030D01*
X1161237Y-1364030D01*
X1165098Y-1364792D01*
X1168400Y-1366977D01*
X1170635Y-1370279D01*
X1171397Y-1374190D01*
X1171397Y-1518869D01*
X1170482Y-1523034D01*
X1167942Y-1526489D01*
X1164234Y-1528572D01*
X1149146Y-1533296D01*
X1135278Y-1539544D01*
X1122273Y-1547418D01*
X1110335Y-1556766D01*
X1099566Y-1567535D01*
X1090218Y-1579473D01*
X1082344Y-1592478D01*
X1076096Y-1606346D01*
X1071575Y-1620875D01*
X1068832Y-1635810D01*
X1067917Y-1651000D01*
X1068832Y-1666189D01*
X1071575Y-1681124D01*
X1076096Y-1695653D01*
X1082344Y-1709521D01*
X1090218Y-1722526D01*
X1099566Y-1734464D01*
X1110335Y-1745234D01*
X1122273Y-1754581D01*
X1135278Y-1762455D01*
X1149146Y-1768703D01*
X1163675Y-1773224D01*
X1178610Y-1775968D01*
X1193800Y-1776882D01*
X1208989Y-1775968D01*
X1223924Y-1773224D01*
X1238453Y-1768703D01*
X1252321Y-1762455D01*
X1265326Y-1754581D01*
X1277264Y-1745234D01*
X1288034Y-1734464D01*
X1297381Y-1722526D01*
X1303020Y-1713179D01*
X1306068Y-1710029D01*
X1310081Y-1708404D01*
X1314450Y-1708657D01*
X1318310Y-1710689D01*
X1320952Y-1714195D01*
X1321917Y-1718462D01*
X1321917Y-1750415D01*
X1322628Y-1756765D01*
X1324508Y-1762201D01*
X1327607Y-1767128D01*
X1331671Y-1771192D01*
X1336598Y-1774291D01*
X1342034Y-1776171D01*
X1348384Y-1776933D01*
X1547215Y-1776933D01*
X1553565Y-1776171D01*
X1559001Y-1774291D01*
X1563928Y-1771192D01*
X1567992Y-1767128D01*
X1571091Y-1762201D01*
X1572971Y-1756765D01*
X1573733Y-1750415D01*
X1573733Y-1699768D01*
X1574495Y-1695856D01*
X1576679Y-1692605D01*
X1579981Y-1690370D01*
X1583893Y-1689607D01*
X1599692Y-1689607D01*
X1607718Y-1688795D01*
X1614932Y-1686610D01*
X1621637Y-1683054D01*
X1627835Y-1677924D01*
X1741424Y-1564335D01*
X1746554Y-1558137D01*
X1750110Y-1551432D01*
X1752295Y-1544218D01*
X1753107Y-1536192D01*
X1753107Y-1331468D01*
X1753870Y-1327556D01*
X1756105Y-1324305D01*
X1759356Y-1322070D01*
X1763268Y-1321308D01*
X2272792Y-1321308D01*
X2280818Y-1320495D01*
X2288032Y-1318310D01*
X2294737Y-1314754D01*
X2300935Y-1309624D01*
X2418994Y-1191564D01*
X2422296Y-1189380D01*
X2426208Y-1188618D01*
X2517495Y-1188618D01*
X2521356Y-1189380D01*
X2524658Y-1191564D01*
X2526842Y-1194866D01*
X2527655Y-1198778D01*
X2526842Y-1202639D01*
X2524658Y-1205941D01*
X2522220Y-1208379D01*
X2516581Y-1216406D01*
X2512466Y-1225346D01*
X2509926Y-1234795D01*
X2509062Y-1244600D01*
X2509926Y-1254404D01*
X2512466Y-1263853D01*
X2516581Y-1272794D01*
X2522220Y-1280820D01*
X2529179Y-1287780D01*
X2537206Y-1293418D01*
X2546146Y-1297533D01*
X2555595Y-1300073D01*
X2563622Y-1300784D01*
X2567025Y-1301699D01*
X2569921Y-1303731D01*
X2643124Y-1376934D01*
X2649372Y-1382064D01*
X2656027Y-1385620D01*
X2663291Y-1387805D01*
X2671318Y-1388618D01*
X2907030Y-1388618D01*
X2910433Y-1389176D01*
X2913430Y-1390853D01*
X2915666Y-1393444D01*
X2917647Y-1396644D01*
X2924860Y-1405128D01*
X2933344Y-1412341D01*
X2942793Y-1418132D01*
X2953105Y-1422400D01*
X2963926Y-1424990D01*
X2975000Y-1425854D01*
X2986074Y-1424990D01*
X2995676Y-1422704D01*
X3000044Y-1422603D01*
X3004007Y-1424330D01*
X3006902Y-1427632D01*
X3008172Y-1431798D01*
X3007614Y-1436116D01*
X3005226Y-1439773D01*
X2962097Y-1482902D01*
X2958795Y-1485138D01*
X2954883Y-1485900D01*
X2236216Y-1485900D01*
X2235200Y-1486916D01*
X2235200Y-1581150D01*
X2234438Y-1585010D01*
X2232202Y-1588312D01*
X2228951Y-1590497D01*
X2225040Y-1591310D01*
X2219096Y-1591310D01*
X2215032Y-1590446D01*
X2211628Y-1588058D01*
X2206193Y-1578965D01*
X2202129Y-1574901D01*
X2197201Y-1571802D01*
X2191766Y-1569872D01*
X2185416Y-1569161D01*
X2132584Y-1569161D01*
X2126234Y-1569872D01*
X2120798Y-1571802D01*
X2115870Y-1574901D01*
X2111806Y-1578965D01*
X2108708Y-1583893D01*
X2106879Y-1589176D01*
X2104694Y-1592732D01*
X2101342Y-1595120D01*
X2097278Y-1595983D01*
X2086610Y-1595983D01*
X2082698Y-1595221D01*
X2079396Y-1592986D01*
X1913331Y-1426921D01*
X1911299Y-1424025D01*
X1910384Y-1420622D01*
X1909673Y-1412595D01*
X1907133Y-1403146D01*
X1903018Y-1394206D01*
X1897380Y-1386179D01*
X1890420Y-1379220D01*
X1882393Y-1373581D01*
X1873453Y-1369466D01*
X1864004Y-1366926D01*
X1854200Y-1366062D01*
X1844395Y-1366926D01*
X1834946Y-1369466D01*
X1826006Y-1373581D01*
X1817979Y-1379220D01*
X1811020Y-1386179D01*
X1805381Y-1394206D01*
X1801266Y-1403146D01*
X1798726Y-1412595D01*
X1797862Y-1422400D01*
X1798726Y-1432204D01*
X1801266Y-1441653D01*
X1805381Y-1450594D01*
X1811020Y-1458620D01*
X1817979Y-1465580D01*
X1826006Y-1471218D01*
X1834946Y-1475333D01*
X1844395Y-1477873D01*
X1852422Y-1478584D01*
X1855825Y-1479499D01*
X1858721Y-1481531D01*
X2038756Y-1661515D01*
X2044954Y-1666646D01*
X2051659Y-1670202D01*
X2058873Y-1672386D01*
X2066899Y-1673199D01*
X2097278Y-1673199D01*
X2101342Y-1674063D01*
X2104694Y-1676450D01*
X2106879Y-1680006D01*
X2108860Y-1685747D01*
X2109419Y-1689100D01*
X2108860Y-1692452D01*
X2106828Y-1698345D01*
X2106117Y-1704695D01*
X2106117Y-1717497D01*
X2139137Y-1717497D01*
X2139137Y-1710182D01*
X2139899Y-1706270D01*
X2142134Y-1702968D01*
X2145436Y-1700784D01*
X2149297Y-1700022D01*
X2168702Y-1700022D01*
X2172563Y-1700784D01*
X2175865Y-1702968D01*
X2178100Y-1706270D01*
X2178862Y-1710182D01*
X2178862Y-1717497D01*
X2211882Y-1717497D01*
X2211882Y-1704695D01*
X2211171Y-1698345D01*
X2209139Y-1692452D01*
X2208580Y-1689100D01*
X2209139Y-1685747D01*
X2211171Y-1679854D01*
X2211476Y-1677517D01*
X2212543Y-1674012D01*
X2214778Y-1671066D01*
X2217928Y-1669186D01*
X2221534Y-1668525D01*
X2225040Y-1668525D01*
X2228951Y-1669288D01*
X2232202Y-1671472D01*
X2234438Y-1674774D01*
X2235200Y-1678686D01*
X2235200Y-1963928D01*
X2234438Y-1967839D01*
X2232202Y-1971090D01*
X2228951Y-1973325D01*
X2225040Y-1974088D01*
G37*

%LPC*%
G36*
X2132584Y-1809038D02*
G01*
X2139137Y-1809038D01*
X2139137Y-1769719D01*
X2106117Y-1769719D01*
X2106117Y-1782521D01*
X2106828Y-1788871D01*
X2108708Y-1794306D01*
X2111806Y-1799234D01*
X2115870Y-1803298D01*
X2120798Y-1806397D01*
X2126234Y-1808327D01*
G37*
G36*
X201269Y-1509014D02*
G01*
X206806Y-1506321D01*
X218744Y-1498549D01*
X229565Y-1489354D01*
X239115Y-1478838D01*
X247243Y-1467205D01*
X251714Y-1458569D01*
X201269Y-1458569D01*
G37*
G36*
X103530Y-1509014D02*
G01*
X103530Y-1458569D01*
X53086Y-1458569D01*
X57556Y-1467205D01*
X65684Y-1478838D01*
X75234Y-1489354D01*
X86055Y-1498549D01*
X97993Y-1506321D01*
G37*
G36*
X2178862Y-1809038D02*
G01*
X2185416Y-1809038D01*
X2191766Y-1808327D01*
X2197201Y-1806397D01*
X2202129Y-1803298D01*
X2206193Y-1799234D01*
X2209292Y-1794306D01*
X2211171Y-1788871D01*
X2211882Y-1782521D01*
X2211882Y-1769719D01*
X2178862Y-1769719D01*
G37*
G36*
X201269Y-1360830D02*
G01*
X251815Y-1360830D01*
X250698Y-1358392D01*
X243332Y-1346250D01*
X234492Y-1335125D01*
X224282Y-1325270D01*
X212902Y-1316786D01*
X201269Y-1310233D01*
G37*
G36*
X52984Y-1360830D02*
G01*
X103530Y-1360830D01*
X103530Y-1310233D01*
X91897Y-1316786D01*
X80518Y-1325270D01*
X70307Y-1335125D01*
X61467Y-1346250D01*
X54102Y-1358392D01*
G37*

%LPD*%
D10*
X2641600Y-1849881D02*
G01*
X2641600Y-1828800D01*
X2552700Y-1739900D01*
X2159000Y-1739900D01*
X2159000Y-1743710D01*
X2159000Y-1634591D02*
G01*
X2163699Y-1629892D01*
X2387600Y-1629892D01*
X2641600Y-1629892D02*
G01*
X2891307Y-1629892D01*
X3174994Y-1346205D01*
X3174994Y-1249997D01*
X2286000Y-724662D02*
G01*
X2337561Y-724662D01*
X2425700Y-812800D01*
X2425700Y-1016000D01*
X2336800Y-1104900D01*
X2171700Y-1104900D01*
X3175000Y-1050036D02*
G01*
X2942336Y-1050036D01*
X2908300Y-1016000D01*
X2425700Y-1016000D01*
X2425700Y-939800D01*
X2578100Y-927100D02*
G01*
X2578100Y-669391D01*
X2463800Y-555091D01*
X1828800Y-508762D02*
G01*
X1751837Y-508762D01*
X1675129Y-585470D01*
X922273Y-585470D01*
X2974987Y-1349994D02*
G01*
X2670794Y-1349994D01*
X2565400Y-1244600D01*
X922218Y-355600D02*
G01*
X1516197Y-355600D01*
X1358900Y-1422400D02*
G01*
X1378204Y-1403095D01*
X1457007Y-1403095D01*
X2159000Y-1634591D02*
G01*
X2066391Y-1634591D01*
X1854200Y-1422400D01*
X622300Y-558800D02*
G01*
X533400Y-647700D01*
X152400Y-647700D01*
X927100Y-876300D02*
G01*
X923391Y-872591D01*
X923391Y-774700D01*
X1066800Y-1156563D02*
G01*
X966063Y-1156563D01*
X927100Y-1117600D01*
X1895792Y-989464D02*
G01*
X760864Y-989464D01*
X673100Y-901700D01*
X152400Y-901700D01*
X1066800Y-1307236D02*
G01*
X773836Y-1307236D01*
X673100Y-1206500D01*
X203200Y-1206500D01*
X152400Y-1155700D01*
X922218Y-585596D02*
G01*
X649096Y-585596D01*
X622300Y-558800D01*
X923289Y-774700D02*
G01*
X922273Y-585470D01*
X622300Y-304800D02*
G01*
X673100Y-355600D01*
X922218Y-355600D01*
X1796897Y-152400D02*
G01*
X1796897Y-292100D01*
X1457007Y-1403095D02*
G01*
X1463967Y-1396136D01*
X1587500Y-1396136D01*
X1210055Y-1308100D02*
G01*
X1066800Y-1307337D01*
X2974992Y-1149997D02*
G01*
X2406002Y-1149997D01*
X2273300Y-1282700D01*
X1714500Y-1282700D01*
X2386736Y-406400D02*
G01*
X2463800Y-483463D01*
X2463800Y-555091D01*
X2236063Y-406400D02*
G01*
X2032000Y-406400D01*
X1587500Y-1245463D02*
G01*
X1689963Y-1245463D01*
X1714500Y-1270000D01*
X1714500Y-1536700D01*
X1600200Y-1651000D01*
X1447800Y-1651000D01*
X1457007Y-1213104D02*
G01*
X1489367Y-1245463D01*
X1587500Y-1245463D01*
X2142743Y-895095D02*
G01*
X2101595Y-895095D01*
X2032000Y-825500D01*
X2032000Y-811778D01*
X2032000Y-811778D02*
G01*
X2032000Y-355600D01*
X1968500Y-292100D01*
X1562100Y-292100D01*
X1516126Y-338073D01*
X1516126Y-355600D01*
X2142807Y-895095D02*
G01*
X2241804Y-895095D01*
X2286000Y-850900D01*
X2286000Y-875436D01*
X2142807Y-705104D02*
G01*
X2162467Y-724763D01*
X2286000Y-724763D01*
X1193800Y-1651000D02*
G01*
X1209992Y-1634807D01*
X1209992Y-1308100D01*
X1917700Y-1104900D02*
G01*
X1895792Y-1082992D01*
X1895792Y-800100D01*
X1895792Y-800100D02*
G01*
X1828800Y-733107D01*
X1828800Y-659536D01*
D11*
G01*
X923394Y-774700D03*
G01*
X1032405Y-774700D03*
D12*
G01*
X2463800Y-555094D03*
D13*
G01*
X2463800Y-664108D03*
D12*
G01*
X2159000Y-1634594D03*
D13*
G01*
X2159000Y-1743608D03*
D14*
G01*
X1796897Y-152400D03*
G01*
X1936902Y-152400D03*
D15*
G01*
X1457007Y-1403095D03*
G01*
X1457007Y-1213104D03*
G01*
X1209992Y-1308100D03*
G01*
X2142807Y-895095D03*
G01*
X2142807Y-705104D03*
G01*
X1895792Y-800100D03*
D16*
G01*
X2286000Y-875424D03*
D17*
G01*
X2286000Y-724763D03*
D18*
G01*
X2236075Y-406400D03*
G01*
X2386724Y-406400D03*
D16*
G01*
X1587500Y-1396124D03*
D17*
G01*
X1587500Y-1245463D03*
D16*
G01*
X1828800Y-508875D03*
D17*
G01*
X1828800Y-659536D03*
D16*
G01*
X1066800Y-1156575D03*
D17*
G01*
X1066800Y-1307236D03*
D19*
G01*
X922218Y-125603D03*
G01*
X922218Y-355600D03*
G01*
X922218Y-585596D03*
D20*
G01*
X1516202Y-355600D03*
D21*
G01*
X2387600Y-1849907D03*
G01*
X2641600Y-1849907D03*
G01*
X2641600Y-1629892D03*
G01*
X2387600Y-1629892D03*
D22*
G01*
X152400Y-647700D03*
D23*
G01*
X152400Y-901700D03*
G01*
X152400Y-1155700D03*
G01*
X152400Y-1409700D03*
D24*
G01*
X622300Y-304800D03*
D25*
G01*
X622300Y-558800D03*
D24*
G01*
X2171700Y-1104900D03*
D25*
G01*
X1917700Y-1104900D03*
D24*
G01*
X1447800Y-1651000D03*
D25*
G01*
X1193800Y-1651000D03*
D26*
G01*
X2974992Y-749998D03*
G01*
X3174994Y-849998D03*
G01*
X2974992Y-949998D03*
G01*
X3174994Y-1049997D03*
G01*
X2974992Y-1149997D03*
G01*
X3174994Y-1249997D03*
G01*
X2974992Y-1349997D03*
D27*
G01*
X3274994Y-449999D03*
D26*
G01*
X3174994Y-649998D03*
D27*
G01*
X3274994Y-1549996D03*
D28*
G01*
X927100Y-1117600D03*
G01*
X927100Y-876300D03*
G01*
X1854200Y-1422400D03*
G01*
X1358900Y-1422400D03*
G01*
X2032000Y-811778D03*
G01*
X2565400Y-1244600D03*
G01*
X2578100Y-927100D03*
G01*
X2057400Y-152400D03*
G01*
X1079500Y-127000D03*
G01*
X1143000Y-127000D03*
G01*
X1206500Y-127000D03*
G01*
X1143000Y-774700D03*
G01*
X2019300Y-1752600D03*
G01*
X1955800Y-1752600D03*
G01*
X2362200Y-584200D03*
G01*
X2311400Y-584200D03*
G01*
X2463800Y-723900D03*
G01*
X508000Y-1028700D03*
G01*
X622300Y-774700D03*
G01*
X1308100Y-1104900D03*
G01*
X1714500Y-406400D03*
M02*
