G04 Layer: BottomLayer*
G04 EasyEDA v6.5.29, 2023-10-05 15:07:23*
G04 0de49d076cbe44b984db42f85a7ac8d1,cce8abda2c6f4e5b9eea80e955d706a9,10*
G04 Gerber Generator version 0.2*
G04 Scale: 100 percent, Rotated: No, Reflected: No *
G04 Dimensions in millimeters *
G04 leading zeros omitted , absolute positions ,4 integer and 5 decimal *
%FSLAX45Y45*%
%MOMM*%

%ADD10C,0.2540*%
%ADD11R,1.7000X1.7000*%
%ADD12C,1.7000*%
%ADD13R,2.0000X2.0000*%
%ADD14C,2.0000*%
%ADD15O,0.8999982X0.9999979999999999*%
%ADD16O,3.3999932X1.1999976*%
%ADD17C,0.6096*%
%ADD18C,0.0127*%

%LPD*%
G36*
X36068Y-1974088D02*
G01*
X32156Y-1973325D01*
X28905Y-1971090D01*
X26670Y-1967839D01*
X25908Y-1963928D01*
X25908Y-1188974D01*
X26771Y-1184859D01*
X29260Y-1181455D01*
X32867Y-1179322D01*
X37033Y-1178864D01*
X41046Y-1180134D01*
X44196Y-1182878D01*
X46075Y-1187246D01*
X51003Y-1200607D01*
X57556Y-1213205D01*
X65684Y-1224838D01*
X75234Y-1235354D01*
X86055Y-1244549D01*
X97993Y-1252321D01*
X110794Y-1258468D01*
X124256Y-1262938D01*
X138226Y-1265682D01*
X152400Y-1266596D01*
X166573Y-1265682D01*
X180543Y-1262938D01*
X194005Y-1258468D01*
X206806Y-1252321D01*
X218744Y-1244549D01*
X229565Y-1235354D01*
X239115Y-1224838D01*
X247243Y-1213205D01*
X253796Y-1200607D01*
X258724Y-1187246D01*
X261874Y-1173378D01*
X263245Y-1159256D01*
X262788Y-1145032D01*
X260502Y-1131011D01*
X256489Y-1117396D01*
X250698Y-1104392D01*
X243332Y-1092250D01*
X234492Y-1081125D01*
X224282Y-1071270D01*
X212902Y-1062786D01*
X200507Y-1055776D01*
X187350Y-1050442D01*
X173583Y-1046835D01*
X159512Y-1045057D01*
X145288Y-1045057D01*
X131216Y-1046835D01*
X117449Y-1050442D01*
X104292Y-1055776D01*
X91897Y-1062786D01*
X80518Y-1071270D01*
X70307Y-1081125D01*
X61467Y-1092250D01*
X54102Y-1104392D01*
X48361Y-1117396D01*
X45821Y-1125931D01*
X43840Y-1129538D01*
X40640Y-1132078D01*
X36677Y-1133195D01*
X32613Y-1132586D01*
X29108Y-1130401D01*
X26720Y-1127048D01*
X25908Y-1123035D01*
X25908Y-934974D01*
X26771Y-930859D01*
X29260Y-927455D01*
X32867Y-925321D01*
X37033Y-924864D01*
X41046Y-926134D01*
X44196Y-928878D01*
X46075Y-933246D01*
X51003Y-946607D01*
X57556Y-959205D01*
X65684Y-970838D01*
X75234Y-981354D01*
X86055Y-990549D01*
X97993Y-998321D01*
X110794Y-1004468D01*
X124256Y-1008938D01*
X138226Y-1011682D01*
X152400Y-1012596D01*
X166573Y-1011682D01*
X180543Y-1008938D01*
X194005Y-1004468D01*
X206806Y-998321D01*
X218744Y-990549D01*
X229565Y-981354D01*
X239115Y-970838D01*
X247243Y-959205D01*
X253796Y-946607D01*
X258724Y-933246D01*
X261874Y-919378D01*
X263245Y-905256D01*
X262788Y-891032D01*
X260502Y-877011D01*
X256489Y-863396D01*
X250698Y-850392D01*
X243332Y-838250D01*
X234492Y-827125D01*
X224282Y-817270D01*
X212902Y-808786D01*
X200507Y-801776D01*
X187350Y-796442D01*
X173583Y-792835D01*
X159512Y-791057D01*
X145288Y-791057D01*
X131216Y-792835D01*
X117449Y-796442D01*
X104292Y-801776D01*
X91897Y-808786D01*
X80518Y-817270D01*
X70307Y-827125D01*
X61467Y-838250D01*
X54102Y-850392D01*
X48361Y-863396D01*
X45821Y-871931D01*
X43840Y-875537D01*
X40640Y-878078D01*
X36677Y-879195D01*
X32613Y-878586D01*
X29108Y-876401D01*
X26720Y-873048D01*
X25908Y-869035D01*
X25908Y-750214D01*
X26822Y-745947D01*
X29464Y-742492D01*
X33274Y-740460D01*
X37592Y-740156D01*
X41656Y-741680D01*
X44653Y-744778D01*
X47193Y-748792D01*
X51308Y-752906D01*
X56184Y-756005D01*
X61671Y-757885D01*
X67970Y-758596D01*
X236829Y-758596D01*
X243128Y-757885D01*
X248615Y-756005D01*
X253492Y-752906D01*
X257606Y-748792D01*
X260705Y-743915D01*
X262585Y-738428D01*
X263296Y-732129D01*
X263296Y-563270D01*
X262585Y-556971D01*
X260705Y-551484D01*
X257606Y-546608D01*
X253492Y-542493D01*
X248615Y-539394D01*
X243128Y-537514D01*
X236829Y-536803D01*
X67970Y-536803D01*
X61671Y-537514D01*
X56184Y-539394D01*
X51308Y-542493D01*
X47193Y-546608D01*
X44653Y-550621D01*
X41656Y-553720D01*
X37592Y-555244D01*
X33274Y-554939D01*
X29464Y-552907D01*
X26822Y-549452D01*
X25908Y-545185D01*
X25908Y-36068D01*
X26670Y-32156D01*
X28905Y-28905D01*
X32156Y-26670D01*
X36068Y-25908D01*
X3463950Y-25908D01*
X3467811Y-26670D01*
X3471113Y-28905D01*
X3473297Y-32156D01*
X3474059Y-36068D01*
X3474059Y-395528D01*
X3473196Y-399643D01*
X3470757Y-403047D01*
X3467150Y-405180D01*
X3462934Y-405638D01*
X3458972Y-404368D01*
X3455771Y-401624D01*
X3449878Y-393750D01*
X3441242Y-385064D01*
X3431438Y-377748D01*
X3420668Y-371856D01*
X3409187Y-367588D01*
X3397199Y-364998D01*
X3384651Y-364083D01*
X3165348Y-364083D01*
X3152749Y-364998D01*
X3140811Y-367588D01*
X3129330Y-371856D01*
X3118561Y-377748D01*
X3108756Y-385064D01*
X3100070Y-393750D01*
X3092754Y-403555D01*
X3086862Y-414324D01*
X3082594Y-425805D01*
X3080004Y-437743D01*
X3079089Y-449986D01*
X3080004Y-462229D01*
X3082594Y-474167D01*
X3086862Y-485648D01*
X3092754Y-496417D01*
X3100070Y-506222D01*
X3108756Y-514908D01*
X3118561Y-522224D01*
X3129330Y-528116D01*
X3140811Y-532384D01*
X3152749Y-534974D01*
X3165348Y-535889D01*
X3384651Y-535889D01*
X3397199Y-534974D01*
X3409187Y-532384D01*
X3420668Y-528116D01*
X3431438Y-522224D01*
X3441242Y-514908D01*
X3449878Y-506222D01*
X3455771Y-498348D01*
X3458972Y-495604D01*
X3462934Y-494334D01*
X3467150Y-494792D01*
X3470757Y-496925D01*
X3473196Y-500329D01*
X3474059Y-504443D01*
X3474059Y-682498D01*
X3473196Y-686612D01*
X3470706Y-690067D01*
X3466998Y-692150D01*
X3462782Y-692556D01*
X3458768Y-691235D01*
X3455619Y-688340D01*
X3449370Y-679500D01*
X3440429Y-669899D01*
X3430270Y-661670D01*
X3419094Y-654862D01*
X3407105Y-649630D01*
X3394506Y-646125D01*
X3381552Y-644347D01*
X3368446Y-644347D01*
X3355492Y-646125D01*
X3342894Y-649630D01*
X3330905Y-654862D01*
X3319678Y-661670D01*
X3309569Y-669899D01*
X3300628Y-679500D01*
X3293059Y-690168D01*
X3287064Y-701802D01*
X3282645Y-714146D01*
X3280003Y-726948D01*
X3279089Y-740003D01*
X3280003Y-753059D01*
X3282645Y-765860D01*
X3287064Y-778205D01*
X3293059Y-789787D01*
X3300628Y-800506D01*
X3309569Y-810056D01*
X3319678Y-818337D01*
X3330905Y-825144D01*
X3342894Y-830326D01*
X3355492Y-833882D01*
X3368446Y-835660D01*
X3381552Y-835660D01*
X3394506Y-833882D01*
X3407105Y-830326D01*
X3419094Y-825144D01*
X3430270Y-818337D01*
X3440429Y-810056D01*
X3449370Y-800506D01*
X3455619Y-791667D01*
X3458768Y-788771D01*
X3462782Y-787400D01*
X3466998Y-787806D01*
X3470706Y-789940D01*
X3473196Y-793343D01*
X3474059Y-797509D01*
X3474059Y-1082497D01*
X3473196Y-1086612D01*
X3470706Y-1090066D01*
X3466998Y-1092149D01*
X3462782Y-1092555D01*
X3458768Y-1091234D01*
X3455619Y-1088339D01*
X3449370Y-1079500D01*
X3440429Y-1069898D01*
X3430270Y-1061669D01*
X3419094Y-1054862D01*
X3407105Y-1049629D01*
X3394506Y-1046124D01*
X3381552Y-1044346D01*
X3368446Y-1044346D01*
X3355492Y-1046124D01*
X3342894Y-1049629D01*
X3330905Y-1054862D01*
X3319678Y-1061669D01*
X3309569Y-1069898D01*
X3300628Y-1079500D01*
X3293059Y-1090168D01*
X3287064Y-1101801D01*
X3282645Y-1114145D01*
X3280003Y-1126947D01*
X3279089Y-1140002D01*
X3280003Y-1153058D01*
X3282645Y-1165860D01*
X3287064Y-1178204D01*
X3293059Y-1189786D01*
X3300628Y-1200505D01*
X3309569Y-1210056D01*
X3319678Y-1218336D01*
X3330905Y-1225143D01*
X3342894Y-1230325D01*
X3355492Y-1233881D01*
X3368446Y-1235659D01*
X3381552Y-1235659D01*
X3394506Y-1233881D01*
X3407105Y-1230325D01*
X3419094Y-1225143D01*
X3430270Y-1218336D01*
X3440429Y-1210056D01*
X3449370Y-1200505D01*
X3455619Y-1191666D01*
X3458768Y-1188770D01*
X3462782Y-1187399D01*
X3466998Y-1187805D01*
X3470706Y-1189939D01*
X3473196Y-1193342D01*
X3474059Y-1197508D01*
X3474059Y-1495552D01*
X3473196Y-1499666D01*
X3470757Y-1503070D01*
X3467150Y-1505153D01*
X3462934Y-1505661D01*
X3458972Y-1504391D01*
X3455771Y-1501597D01*
X3449878Y-1493723D01*
X3441242Y-1485087D01*
X3431438Y-1477721D01*
X3420668Y-1471879D01*
X3409187Y-1467561D01*
X3397199Y-1464970D01*
X3384651Y-1464056D01*
X3274060Y-1464056D01*
X3270148Y-1463294D01*
X3266897Y-1461109D01*
X3264662Y-1457807D01*
X3263900Y-1453896D01*
X3263900Y-1182116D01*
X3262884Y-1181100D01*
X3207410Y-1181100D01*
X3203498Y-1180338D01*
X3196894Y-1177594D01*
X3186074Y-1175004D01*
X3175000Y-1174140D01*
X3163925Y-1175004D01*
X3153105Y-1177594D01*
X3146501Y-1180338D01*
X3142589Y-1181100D01*
X3099816Y-1181100D01*
X3098800Y-1182116D01*
X3098800Y-1341983D01*
X3098038Y-1345895D01*
X3095802Y-1349197D01*
X3059734Y-1385265D01*
X3056077Y-1387602D01*
X3051759Y-1388211D01*
X3047593Y-1386941D01*
X3044342Y-1384046D01*
X3042615Y-1380032D01*
X3042666Y-1375714D01*
X3045002Y-1366062D01*
X3045917Y-1354582D01*
X3045917Y-1345387D01*
X3045002Y-1333906D01*
X3042412Y-1323086D01*
X3038144Y-1312824D01*
X3032353Y-1303324D01*
X3025089Y-1294892D01*
X3016656Y-1287678D01*
X3007156Y-1281836D01*
X2996895Y-1277569D01*
X2986074Y-1274978D01*
X2975000Y-1274114D01*
X2963926Y-1274978D01*
X2953105Y-1277569D01*
X2942793Y-1281836D01*
X2933344Y-1287678D01*
X2924860Y-1294892D01*
X2917647Y-1303324D01*
X2911856Y-1312824D01*
X2907588Y-1323086D01*
X2904998Y-1333906D01*
X2904083Y-1345387D01*
X2904083Y-1354582D01*
X2904998Y-1366062D01*
X2907588Y-1376883D01*
X2911856Y-1387195D01*
X2917647Y-1396644D01*
X2924860Y-1405128D01*
X2933344Y-1412341D01*
X2942793Y-1418132D01*
X2953105Y-1422400D01*
X2963926Y-1424990D01*
X2975000Y-1425854D01*
X2986074Y-1424990D01*
X2995676Y-1422704D01*
X3000044Y-1422603D01*
X3004007Y-1424330D01*
X3006902Y-1427632D01*
X3008172Y-1431798D01*
X3007614Y-1436116D01*
X3005226Y-1439773D01*
X2962097Y-1482902D01*
X2958795Y-1485138D01*
X2954883Y-1485900D01*
X2236216Y-1485900D01*
X2235200Y-1486916D01*
X2235200Y-1963928D01*
X2234438Y-1967839D01*
X2232202Y-1971090D01*
X2228951Y-1973325D01*
X2225040Y-1974088D01*
G37*

%LPC*%
G36*
X622300Y-684682D02*
G01*
X637489Y-683768D01*
X652424Y-681024D01*
X666953Y-676503D01*
X680821Y-670255D01*
X693826Y-662381D01*
X705764Y-653034D01*
X716534Y-642264D01*
X725881Y-630326D01*
X733755Y-617321D01*
X740003Y-603453D01*
X744524Y-588924D01*
X747268Y-573989D01*
X748182Y-558800D01*
X747268Y-543610D01*
X744524Y-528675D01*
X740003Y-514146D01*
X733755Y-500278D01*
X725881Y-487273D01*
X716534Y-475335D01*
X705764Y-464566D01*
X693826Y-455218D01*
X684479Y-449580D01*
X681329Y-446532D01*
X679704Y-442518D01*
X679958Y-438150D01*
X681990Y-434289D01*
X685495Y-431647D01*
X689762Y-430733D01*
X721715Y-430733D01*
X728065Y-429971D01*
X733501Y-428091D01*
X738428Y-424992D01*
X742492Y-420928D01*
X745591Y-416001D01*
X747471Y-410565D01*
X748233Y-404215D01*
X748233Y-205384D01*
X747471Y-199034D01*
X745591Y-193598D01*
X742492Y-188671D01*
X738428Y-184607D01*
X733501Y-181508D01*
X728065Y-179628D01*
X721715Y-178917D01*
X522884Y-178917D01*
X516534Y-179628D01*
X511098Y-181508D01*
X506171Y-184607D01*
X502107Y-188671D01*
X499008Y-193598D01*
X497128Y-199034D01*
X496417Y-205384D01*
X496417Y-404215D01*
X497128Y-410565D01*
X499008Y-416001D01*
X502107Y-420928D01*
X506171Y-424992D01*
X511098Y-428091D01*
X516534Y-429971D01*
X522884Y-430733D01*
X554837Y-430733D01*
X559104Y-431647D01*
X562610Y-434289D01*
X564642Y-438150D01*
X564896Y-442518D01*
X563270Y-446532D01*
X560120Y-449580D01*
X550773Y-455218D01*
X538835Y-464566D01*
X528066Y-475335D01*
X518718Y-487273D01*
X510844Y-500278D01*
X504596Y-514146D01*
X500075Y-528675D01*
X497332Y-543610D01*
X496417Y-558800D01*
X497332Y-573989D01*
X500075Y-588924D01*
X504596Y-603453D01*
X510844Y-617321D01*
X518718Y-630326D01*
X528066Y-642264D01*
X538835Y-653034D01*
X550773Y-662381D01*
X563778Y-670255D01*
X577646Y-676503D01*
X592175Y-681024D01*
X607110Y-683768D01*
G37*
G36*
X103530Y-1509014D02*
G01*
X103530Y-1458569D01*
X53086Y-1458569D01*
X57556Y-1467205D01*
X65684Y-1478838D01*
X75234Y-1489354D01*
X86055Y-1498549D01*
X97993Y-1506321D01*
G37*
G36*
X1358900Y-1478737D02*
G01*
X1368704Y-1477873D01*
X1378153Y-1475333D01*
X1387094Y-1471218D01*
X1395120Y-1465580D01*
X1396695Y-1464005D01*
X1399997Y-1461770D01*
X1403908Y-1461008D01*
X1809191Y-1461008D01*
X1813102Y-1461770D01*
X1816404Y-1464005D01*
X1817979Y-1465580D01*
X1826006Y-1471218D01*
X1834946Y-1475333D01*
X1844395Y-1477873D01*
X1854200Y-1478737D01*
X1864004Y-1477873D01*
X1873453Y-1475333D01*
X1882393Y-1471218D01*
X1890420Y-1465580D01*
X1897380Y-1458620D01*
X1903018Y-1450594D01*
X1907133Y-1441653D01*
X1909673Y-1432204D01*
X1910537Y-1422400D01*
X1909673Y-1412595D01*
X1907133Y-1403146D01*
X1903018Y-1394206D01*
X1897380Y-1386179D01*
X1890420Y-1379220D01*
X1882393Y-1373581D01*
X1873453Y-1369466D01*
X1864004Y-1366926D01*
X1854200Y-1366062D01*
X1844395Y-1366926D01*
X1834946Y-1369466D01*
X1826006Y-1373581D01*
X1817979Y-1379220D01*
X1816404Y-1380794D01*
X1813102Y-1383030D01*
X1809191Y-1383792D01*
X1788668Y-1383792D01*
X1784756Y-1383030D01*
X1781505Y-1380794D01*
X1779270Y-1377543D01*
X1778507Y-1373632D01*
X1778507Y-1147368D01*
X1779320Y-1143355D01*
X1781657Y-1140002D01*
X1785162Y-1137818D01*
X1789175Y-1137208D01*
X1793138Y-1138224D01*
X1796389Y-1140764D01*
X1798370Y-1144320D01*
X1799996Y-1149553D01*
X1806244Y-1163421D01*
X1814118Y-1176426D01*
X1823466Y-1188364D01*
X1834235Y-1199134D01*
X1846173Y-1208481D01*
X1859178Y-1216355D01*
X1873046Y-1222603D01*
X1887575Y-1227124D01*
X1902510Y-1229868D01*
X1917700Y-1230782D01*
X1932889Y-1229868D01*
X1947824Y-1227124D01*
X1962353Y-1222603D01*
X1976221Y-1216355D01*
X1989226Y-1208481D01*
X2001164Y-1199134D01*
X2011934Y-1188364D01*
X2021281Y-1176426D01*
X2026920Y-1167079D01*
X2029968Y-1163929D01*
X2033981Y-1162304D01*
X2038350Y-1162558D01*
X2042210Y-1164590D01*
X2044852Y-1168095D01*
X2045766Y-1172362D01*
X2045766Y-1204315D01*
X2046528Y-1210665D01*
X2048408Y-1216101D01*
X2051507Y-1221028D01*
X2055571Y-1225092D01*
X2060498Y-1228191D01*
X2065934Y-1230071D01*
X2072284Y-1230833D01*
X2271115Y-1230833D01*
X2277465Y-1230071D01*
X2282901Y-1228191D01*
X2287828Y-1225092D01*
X2291892Y-1221028D01*
X2294991Y-1216101D01*
X2296871Y-1210665D01*
X2297633Y-1204315D01*
X2297633Y-1005484D01*
X2296871Y-999134D01*
X2294991Y-993698D01*
X2291892Y-988771D01*
X2287828Y-984707D01*
X2282901Y-981608D01*
X2277465Y-979728D01*
X2271115Y-979017D01*
X2072284Y-979017D01*
X2065934Y-979728D01*
X2060498Y-981608D01*
X2055571Y-984707D01*
X2051507Y-988771D01*
X2048408Y-993698D01*
X2046528Y-999134D01*
X2045766Y-1005484D01*
X2045766Y-1037437D01*
X2044852Y-1041704D01*
X2042210Y-1045210D01*
X2038350Y-1047242D01*
X2033981Y-1047496D01*
X2029968Y-1045870D01*
X2026920Y-1042720D01*
X2021281Y-1033373D01*
X2011934Y-1021435D01*
X2001164Y-1010666D01*
X1989226Y-1001318D01*
X1976221Y-993444D01*
X1962353Y-987196D01*
X1947824Y-982675D01*
X1932889Y-979932D01*
X1917700Y-979017D01*
X1902510Y-979932D01*
X1887575Y-982675D01*
X1873046Y-987196D01*
X1859178Y-993444D01*
X1846173Y-1001318D01*
X1834235Y-1010666D01*
X1823466Y-1021435D01*
X1814118Y-1033373D01*
X1806244Y-1046378D01*
X1799996Y-1060246D01*
X1798370Y-1065479D01*
X1796389Y-1069035D01*
X1793138Y-1071575D01*
X1789175Y-1072591D01*
X1785162Y-1071981D01*
X1781657Y-1069797D01*
X1779320Y-1066444D01*
X1778507Y-1062431D01*
X1778507Y-947318D01*
X1779270Y-943406D01*
X1781505Y-940104D01*
X1868220Y-853338D01*
X1871522Y-851153D01*
X1875434Y-850392D01*
X1986991Y-850392D01*
X1990902Y-851153D01*
X1994204Y-853338D01*
X1995779Y-854964D01*
X2003806Y-860602D01*
X2012746Y-864717D01*
X2022195Y-867257D01*
X2032000Y-868121D01*
X2041804Y-867257D01*
X2051253Y-864717D01*
X2060193Y-860602D01*
X2072081Y-852169D01*
X2075942Y-851408D01*
X2566517Y-851408D01*
X2570581Y-852271D01*
X2573985Y-854659D01*
X2576118Y-858215D01*
X2576677Y-862330D01*
X2575509Y-866292D01*
X2572867Y-869492D01*
X2569159Y-871372D01*
X2558846Y-874166D01*
X2549906Y-878281D01*
X2541879Y-883919D01*
X2534920Y-890879D01*
X2529281Y-898906D01*
X2525166Y-907846D01*
X2522626Y-917295D01*
X2521762Y-927100D01*
X2522626Y-936904D01*
X2525166Y-946353D01*
X2525826Y-947877D01*
X2526792Y-952144D01*
X2526792Y-1199591D01*
X2526030Y-1203502D01*
X2523794Y-1206804D01*
X2522220Y-1208379D01*
X2516581Y-1216406D01*
X2512466Y-1225346D01*
X2509926Y-1234795D01*
X2509062Y-1244600D01*
X2509926Y-1254404D01*
X2512466Y-1263853D01*
X2516581Y-1272794D01*
X2522220Y-1280820D01*
X2529179Y-1287780D01*
X2537206Y-1293418D01*
X2546146Y-1297533D01*
X2555595Y-1300073D01*
X2565400Y-1300937D01*
X2575204Y-1300073D01*
X2584653Y-1297533D01*
X2593594Y-1293418D01*
X2601620Y-1287780D01*
X2608580Y-1280820D01*
X2614218Y-1272794D01*
X2618333Y-1263853D01*
X2620873Y-1254404D01*
X2621737Y-1244600D01*
X2620873Y-1234795D01*
X2618333Y-1225346D01*
X2614218Y-1216406D01*
X2608580Y-1208379D01*
X2607005Y-1206804D01*
X2604770Y-1203502D01*
X2604008Y-1199591D01*
X2604008Y-982776D01*
X2604516Y-979576D01*
X2606040Y-976731D01*
X2608326Y-974445D01*
X2614320Y-970280D01*
X2621280Y-963320D01*
X2626918Y-955294D01*
X2631033Y-946353D01*
X2633573Y-936904D01*
X2634437Y-927100D01*
X2633573Y-917295D01*
X2631033Y-907846D01*
X2626918Y-898906D01*
X2621280Y-890879D01*
X2614320Y-883919D01*
X2606294Y-878281D01*
X2597353Y-874166D01*
X2587040Y-871372D01*
X2583332Y-869492D01*
X2580690Y-866292D01*
X2579522Y-862330D01*
X2580081Y-858215D01*
X2582214Y-854659D01*
X2585618Y-852271D01*
X2589682Y-851408D01*
X2679192Y-851408D01*
X2687218Y-850595D01*
X2694432Y-848410D01*
X2701137Y-844854D01*
X2707335Y-839724D01*
X2895904Y-651205D01*
X2899206Y-648970D01*
X2903118Y-648208D01*
X3065881Y-648208D01*
X3069793Y-648970D01*
X3073095Y-651205D01*
X3098850Y-676910D01*
X3105048Y-682040D01*
X3110230Y-685190D01*
X3111906Y-687273D01*
X3117646Y-696671D01*
X3124860Y-705104D01*
X3133344Y-712317D01*
X3142792Y-718159D01*
X3153105Y-722426D01*
X3163925Y-725017D01*
X3175000Y-725881D01*
X3186074Y-725017D01*
X3196894Y-722426D01*
X3207156Y-718159D01*
X3216656Y-712317D01*
X3225088Y-705104D01*
X3232353Y-696671D01*
X3238144Y-687171D01*
X3242411Y-676910D01*
X3245002Y-666089D01*
X3245916Y-654608D01*
X3245916Y-645414D01*
X3245002Y-633933D01*
X3242411Y-623112D01*
X3238144Y-612800D01*
X3232353Y-603351D01*
X3225088Y-594868D01*
X3216656Y-587654D01*
X3207156Y-581863D01*
X3196894Y-577596D01*
X3186074Y-575005D01*
X3175000Y-574141D01*
X3163925Y-575005D01*
X3153105Y-577596D01*
X3142792Y-581863D01*
X3129330Y-590143D01*
X3125622Y-590702D01*
X3121964Y-589838D01*
X3118815Y-587756D01*
X3113735Y-582676D01*
X3107537Y-577545D01*
X3100832Y-573989D01*
X3093618Y-571804D01*
X3085592Y-570992D01*
X2883408Y-570992D01*
X2875381Y-571804D01*
X2868168Y-573989D01*
X2861462Y-577545D01*
X2855264Y-582676D01*
X2666695Y-771194D01*
X2663393Y-773430D01*
X2659481Y-774192D01*
X2078024Y-774192D01*
X2074113Y-773430D01*
X2070811Y-771194D01*
X2068220Y-768604D01*
X2060193Y-762965D01*
X2051253Y-758850D01*
X2041804Y-756310D01*
X2032000Y-755446D01*
X2022195Y-756310D01*
X2012746Y-758850D01*
X2003806Y-762965D01*
X1995779Y-768604D01*
X1994204Y-770178D01*
X1990902Y-772414D01*
X1986991Y-773176D01*
X1855724Y-773176D01*
X1847697Y-773938D01*
X1840484Y-776173D01*
X1833778Y-779729D01*
X1827580Y-784809D01*
X1712975Y-899464D01*
X1707845Y-905662D01*
X1704289Y-912368D01*
X1702104Y-919581D01*
X1701292Y-927608D01*
X1701292Y-1373632D01*
X1700530Y-1377543D01*
X1698294Y-1380794D01*
X1695043Y-1383030D01*
X1691132Y-1383792D01*
X1403908Y-1383792D01*
X1399997Y-1383030D01*
X1396695Y-1380794D01*
X1395120Y-1379220D01*
X1387094Y-1373581D01*
X1378153Y-1369466D01*
X1368704Y-1366926D01*
X1358900Y-1366062D01*
X1349095Y-1366926D01*
X1339646Y-1369466D01*
X1330706Y-1373581D01*
X1322679Y-1379220D01*
X1315720Y-1386179D01*
X1310081Y-1394206D01*
X1305966Y-1403146D01*
X1303426Y-1412595D01*
X1302562Y-1422400D01*
X1303426Y-1432204D01*
X1305966Y-1441653D01*
X1310081Y-1450594D01*
X1315720Y-1458620D01*
X1322679Y-1465580D01*
X1330706Y-1471218D01*
X1339646Y-1475333D01*
X1349095Y-1477873D01*
G37*
G36*
X201269Y-1360830D02*
G01*
X251815Y-1360830D01*
X250698Y-1358392D01*
X243332Y-1346250D01*
X234492Y-1335125D01*
X224282Y-1325270D01*
X212902Y-1316786D01*
X201269Y-1310233D01*
G37*
G36*
X52984Y-1360830D02*
G01*
X103530Y-1360830D01*
X103530Y-1310233D01*
X91897Y-1316786D01*
X80518Y-1325270D01*
X70307Y-1335125D01*
X61467Y-1346250D01*
X54102Y-1358392D01*
G37*
G36*
X2975000Y-1225854D02*
G01*
X2986074Y-1224991D01*
X2996895Y-1222400D01*
X3007156Y-1218133D01*
X3016656Y-1212342D01*
X3025089Y-1205128D01*
X3032353Y-1196644D01*
X3038144Y-1187196D01*
X3042412Y-1176883D01*
X3045002Y-1166063D01*
X3045917Y-1154582D01*
X3045917Y-1145387D01*
X3045002Y-1133906D01*
X3042412Y-1123086D01*
X3038144Y-1112824D01*
X3032353Y-1103325D01*
X3025089Y-1094892D01*
X3016656Y-1087678D01*
X3007156Y-1081836D01*
X2996895Y-1077569D01*
X2986074Y-1074978D01*
X2975000Y-1074115D01*
X2963926Y-1074978D01*
X2953105Y-1077569D01*
X2942793Y-1081836D01*
X2933344Y-1087678D01*
X2924860Y-1094892D01*
X2917647Y-1103325D01*
X2911856Y-1112824D01*
X2907588Y-1123086D01*
X2904998Y-1133906D01*
X2904083Y-1145387D01*
X2904083Y-1154582D01*
X2904998Y-1166063D01*
X2907588Y-1176883D01*
X2911856Y-1187196D01*
X2917647Y-1196644D01*
X2924860Y-1205128D01*
X2933344Y-1212342D01*
X2942793Y-1218133D01*
X2953105Y-1222400D01*
X2963926Y-1224991D01*
G37*
G36*
X927100Y-1173937D02*
G01*
X936904Y-1173073D01*
X946353Y-1170533D01*
X955294Y-1166418D01*
X963320Y-1160780D01*
X970280Y-1153820D01*
X975918Y-1145794D01*
X980033Y-1136853D01*
X982573Y-1127404D01*
X983437Y-1117600D01*
X982573Y-1107795D01*
X980033Y-1098346D01*
X975918Y-1089406D01*
X970280Y-1081379D01*
X968705Y-1079804D01*
X966469Y-1076502D01*
X965708Y-1072591D01*
X965708Y-921308D01*
X966469Y-917397D01*
X968705Y-914095D01*
X970280Y-912520D01*
X975918Y-904494D01*
X980033Y-895553D01*
X982573Y-886104D01*
X983437Y-876300D01*
X982573Y-866495D01*
X980033Y-857046D01*
X975918Y-848106D01*
X970280Y-840079D01*
X963320Y-833119D01*
X955294Y-827481D01*
X946353Y-823366D01*
X936904Y-820826D01*
X927100Y-819962D01*
X917295Y-820826D01*
X907846Y-823366D01*
X898906Y-827481D01*
X890879Y-833119D01*
X883919Y-840079D01*
X878281Y-848106D01*
X874166Y-857046D01*
X871626Y-866495D01*
X870762Y-876300D01*
X871626Y-886104D01*
X874166Y-895553D01*
X878281Y-904494D01*
X883919Y-912520D01*
X885494Y-914095D01*
X887730Y-917397D01*
X888492Y-921308D01*
X888492Y-1072591D01*
X887730Y-1076502D01*
X885494Y-1079804D01*
X883919Y-1081379D01*
X878281Y-1089406D01*
X874166Y-1098346D01*
X871626Y-1107795D01*
X870762Y-1117600D01*
X871626Y-1127404D01*
X874166Y-1136853D01*
X878281Y-1145794D01*
X883919Y-1153820D01*
X890879Y-1160780D01*
X898906Y-1166418D01*
X907846Y-1170533D01*
X917295Y-1173073D01*
G37*
G36*
X3175000Y-1125880D02*
G01*
X3186074Y-1125016D01*
X3196894Y-1122426D01*
X3207156Y-1118158D01*
X3216656Y-1112316D01*
X3225088Y-1105103D01*
X3232353Y-1096670D01*
X3238144Y-1087170D01*
X3242411Y-1076909D01*
X3245002Y-1066088D01*
X3245916Y-1054608D01*
X3245916Y-1045413D01*
X3245002Y-1033932D01*
X3242411Y-1023112D01*
X3238144Y-1012799D01*
X3232353Y-1003350D01*
X3225088Y-994867D01*
X3216656Y-987653D01*
X3207156Y-981862D01*
X3196894Y-977595D01*
X3186074Y-975004D01*
X3175000Y-974140D01*
X3163925Y-975004D01*
X3153105Y-977595D01*
X3142792Y-981862D01*
X3133344Y-987653D01*
X3124860Y-994867D01*
X3117646Y-1003350D01*
X3111855Y-1012799D01*
X3107588Y-1023112D01*
X3104997Y-1033932D01*
X3104083Y-1045413D01*
X3104083Y-1054608D01*
X3104997Y-1066088D01*
X3107588Y-1076909D01*
X3111855Y-1087170D01*
X3117646Y-1096670D01*
X3124860Y-1105103D01*
X3133344Y-1112316D01*
X3142792Y-1118158D01*
X3153105Y-1122426D01*
X3163925Y-1125016D01*
G37*
G36*
X1348384Y-1776933D02*
G01*
X1547215Y-1776933D01*
X1553565Y-1776171D01*
X1559001Y-1774291D01*
X1563928Y-1771192D01*
X1567992Y-1767128D01*
X1571091Y-1762201D01*
X1572971Y-1756765D01*
X1573733Y-1750415D01*
X1573733Y-1551584D01*
X1572971Y-1545234D01*
X1571091Y-1539798D01*
X1567992Y-1534871D01*
X1563928Y-1530807D01*
X1559001Y-1527708D01*
X1553565Y-1525828D01*
X1547215Y-1525117D01*
X1348384Y-1525117D01*
X1342034Y-1525828D01*
X1336598Y-1527708D01*
X1331671Y-1530807D01*
X1327607Y-1534871D01*
X1324508Y-1539798D01*
X1322628Y-1545234D01*
X1321917Y-1551584D01*
X1321917Y-1583537D01*
X1320952Y-1587804D01*
X1318310Y-1591310D01*
X1314450Y-1593342D01*
X1310081Y-1593596D01*
X1306068Y-1591970D01*
X1303020Y-1588820D01*
X1297381Y-1579473D01*
X1288034Y-1567535D01*
X1277264Y-1556766D01*
X1265326Y-1547418D01*
X1252321Y-1539544D01*
X1238453Y-1533296D01*
X1223924Y-1528775D01*
X1208989Y-1526032D01*
X1193800Y-1525117D01*
X1178610Y-1526032D01*
X1163675Y-1528775D01*
X1149146Y-1533296D01*
X1135278Y-1539544D01*
X1122273Y-1547418D01*
X1110335Y-1556766D01*
X1099566Y-1567535D01*
X1090218Y-1579473D01*
X1082344Y-1592478D01*
X1076096Y-1606346D01*
X1071575Y-1620875D01*
X1068832Y-1635810D01*
X1067917Y-1651000D01*
X1068832Y-1666189D01*
X1071575Y-1681124D01*
X1076096Y-1695653D01*
X1082344Y-1709521D01*
X1090218Y-1722526D01*
X1099566Y-1734464D01*
X1110335Y-1745234D01*
X1122273Y-1754581D01*
X1135278Y-1762455D01*
X1149146Y-1768703D01*
X1163675Y-1773224D01*
X1178610Y-1775968D01*
X1193800Y-1776882D01*
X1208989Y-1775968D01*
X1223924Y-1773224D01*
X1238453Y-1768703D01*
X1252321Y-1762455D01*
X1265326Y-1754581D01*
X1277264Y-1745234D01*
X1288034Y-1734464D01*
X1297381Y-1722526D01*
X1303020Y-1713179D01*
X1306068Y-1710029D01*
X1310081Y-1708404D01*
X1314450Y-1708657D01*
X1318310Y-1710689D01*
X1320952Y-1714195D01*
X1321917Y-1718462D01*
X1321917Y-1750415D01*
X1322628Y-1756765D01*
X1324508Y-1762201D01*
X1327607Y-1767128D01*
X1331671Y-1771192D01*
X1336598Y-1774291D01*
X1342034Y-1776171D01*
G37*
G36*
X201269Y-1509014D02*
G01*
X206806Y-1506321D01*
X218744Y-1498549D01*
X229565Y-1489354D01*
X239115Y-1478838D01*
X247243Y-1467205D01*
X251714Y-1458569D01*
X201269Y-1458569D01*
G37*
G36*
X3146145Y-919530D02*
G01*
X3146145Y-881329D01*
X3109417Y-881329D01*
X3111855Y-887171D01*
X3117646Y-896670D01*
X3124860Y-905103D01*
X3133344Y-912317D01*
X3142792Y-918159D01*
G37*
G36*
X3203854Y-919530D02*
G01*
X3207156Y-918159D01*
X3216656Y-912317D01*
X3225088Y-905103D01*
X3232353Y-896670D01*
X3238144Y-887171D01*
X3240582Y-881329D01*
X3203854Y-881329D01*
G37*
G36*
X2946146Y-819505D02*
G01*
X2946146Y-781354D01*
X2909417Y-781354D01*
X2911856Y-787196D01*
X2917647Y-796645D01*
X2924860Y-805129D01*
X2933344Y-812342D01*
X2942793Y-818134D01*
G37*
G36*
X3003854Y-819505D02*
G01*
X3007156Y-818134D01*
X3016656Y-812342D01*
X3025089Y-805129D01*
X3032353Y-796645D01*
X3038144Y-787196D01*
X3040583Y-781354D01*
X3003854Y-781354D01*
G37*
G36*
X3109417Y-818641D02*
G01*
X3146145Y-818641D01*
X3146145Y-780491D01*
X3142792Y-781862D01*
X3133344Y-787654D01*
X3124860Y-794867D01*
X3117646Y-803351D01*
X3111855Y-812800D01*
G37*
G36*
X3203854Y-818641D02*
G01*
X3240582Y-818641D01*
X3238144Y-812800D01*
X3232353Y-803351D01*
X3225088Y-794867D01*
X3216656Y-787654D01*
X3207156Y-781862D01*
X3203854Y-780491D01*
G37*
G36*
X3003854Y-718667D02*
G01*
X3040583Y-718667D01*
X3038144Y-712825D01*
X3032353Y-703326D01*
X3025089Y-694893D01*
X3016656Y-687679D01*
X3007156Y-681837D01*
X3003854Y-680466D01*
G37*
G36*
X2909417Y-718667D02*
G01*
X2946146Y-718667D01*
X2946146Y-680466D01*
X2942793Y-681837D01*
X2933344Y-687679D01*
X2924860Y-694893D01*
X2917647Y-703326D01*
X2911856Y-712825D01*
G37*
G36*
X2975000Y-1025855D02*
G01*
X2986074Y-1024991D01*
X2996895Y-1022400D01*
X3007156Y-1018133D01*
X3016656Y-1012342D01*
X3025089Y-1005128D01*
X3032353Y-996645D01*
X3038144Y-987196D01*
X3042412Y-976884D01*
X3045002Y-966063D01*
X3045917Y-954582D01*
X3045917Y-945387D01*
X3045002Y-933907D01*
X3042412Y-923086D01*
X3038144Y-912825D01*
X3032353Y-903325D01*
X3025089Y-894892D01*
X3016656Y-887679D01*
X3007156Y-881837D01*
X2996895Y-877569D01*
X2986074Y-874979D01*
X2975000Y-874115D01*
X2963926Y-874979D01*
X2953105Y-877569D01*
X2942793Y-881837D01*
X2933344Y-887679D01*
X2924860Y-894892D01*
X2917647Y-903325D01*
X2911856Y-912825D01*
X2907588Y-923086D01*
X2904998Y-933907D01*
X2904083Y-945387D01*
X2904083Y-954582D01*
X2904998Y-966063D01*
X2907588Y-976884D01*
X2911856Y-987196D01*
X2917647Y-996645D01*
X2924860Y-1005128D01*
X2933344Y-1012342D01*
X2942793Y-1018133D01*
X2953105Y-1022400D01*
X2963926Y-1024991D01*
G37*

%LPD*%
D10*
X2032000Y-812800D02*
G01*
X2679700Y-812800D01*
X2882900Y-609600D01*
X3086100Y-609600D01*
X3126486Y-649986D01*
X3175000Y-649986D01*
X2565400Y-1244600D02*
G01*
X2565400Y-939800D01*
X2578100Y-927100D01*
X2032000Y-811778D02*
G01*
X1855221Y-811778D01*
X1739900Y-927100D01*
X1739900Y-1422400D01*
X1854200Y-1422400D02*
G01*
X1358900Y-1422400D01*
X927100Y-1117600D02*
G01*
X927100Y-876300D01*
D11*
G01*
X152400Y-647700D03*
D12*
G01*
X152400Y-901700D03*
G01*
X152400Y-1155700D03*
G01*
X152400Y-1409700D03*
D13*
G01*
X622300Y-304800D03*
D14*
G01*
X622300Y-558800D03*
D13*
G01*
X2171700Y-1104900D03*
D14*
G01*
X1917700Y-1104900D03*
D13*
G01*
X1447800Y-1651000D03*
D14*
G01*
X1193800Y-1651000D03*
D15*
G01*
X2974992Y-749998D03*
G01*
X3174994Y-849998D03*
G01*
X2974992Y-949998D03*
G01*
X3174994Y-1049997D03*
G01*
X2974992Y-1149997D03*
G01*
X3174994Y-1249997D03*
G01*
X2974992Y-1349997D03*
D16*
G01*
X3274994Y-449999D03*
D15*
G01*
X3174994Y-649998D03*
D16*
G01*
X3274994Y-1549996D03*
D17*
G01*
X927100Y-1117600D03*
G01*
X927100Y-876300D03*
G01*
X1854200Y-1422400D03*
G01*
X1358900Y-1422400D03*
G01*
X2032000Y-811778D03*
G01*
X2565400Y-1244600D03*
G01*
X2578100Y-927100D03*
G01*
X2057400Y-152400D03*
G01*
X1079500Y-127000D03*
G01*
X1143000Y-127000D03*
G01*
X1206500Y-127000D03*
G01*
X1143000Y-774700D03*
G01*
X2019300Y-1752600D03*
G01*
X1955800Y-1752600D03*
G01*
X2362200Y-584200D03*
G01*
X2311400Y-584200D03*
G01*
X2463800Y-723900D03*
G01*
X508000Y-1028700D03*
G01*
X622300Y-774700D03*
G01*
X1308100Y-1104900D03*
G01*
X1714500Y-406400D03*
M02*
